<?xml version="1.0" encoding="UTF-8"?><svg version="1.1" xmlns="http://www.w3.org/2000/svg" xmlns:xlink="http://www.w3.org/1999/xlink" viewBox="0 0 1500 1500" width="1500" height="1500" x="0px" y="0px">
              
              <!-- ITEM 0 -->
<g>
    <defs>
        
        <clipPath id="clip-path-id-viewbox-item-0">
            <rect x="0.0" y="0.0" width="2231.903" height="1575.229"/>
        </clipPath>
    </defs>
    <g transform="translate(72.0 97.0) rotate(0.0 690.0 487.5) scale(0.6183064407368959 0.6189576245739509)">
        <g clip-path="url(#clip-path-id-viewbox-item-0)" transform="translate(-0.0 -0.0)">

<g>
	<path style="fill:#FFB400;" d="M2180.807,1298.538c-4.131,6.031-8.497,11.819-13.088,17.39   c-11.063,13.466-23.367,25.626-36.662,36.662c-63.405,52.639-149.33,79.697-230.99,100.652   c-480.846,123.371-985.392,153.624-1477.534,88.662c-6.814-0.891-13.628-1.809-20.433-2.745   c-48.895-6.724-116.251-16.499-181.258-35.321C134.71,1478.896,52.7,1438.084,23.302,1367.46   c-49.444-118.744-13.106-314.8,42.855-424.03c62.577-122.147,174.327-218.199,304.485-261.72   c201.772-67.473,443.788-15.176,616.134-139.915c102.623-74.278,158.629-198.099,255.221-280.073   c126.683-107.52,313.9-128.277,470.503-72.748c156.603,55.529,283.053,179.206,365.108,323.693   c82.055,144.479,123.056,308.967,145.226,473.636C2237.181,1092.869,2241.655,1209.885,2180.807,1298.538z"/>
	<path style="fill:#F04E23;" d="M2167.719,1315.928c-11.063,13.466-23.367,25.626-36.662,36.662   c-63.405,52.639-149.33,79.697-230.99,100.652c-480.846,123.371-985.392,153.624-1477.534,88.662   c-6.814-0.891-13.628-1.809-20.433-2.745c-48.895-6.724-116.251-16.499-181.258-35.321c30.604-21.09,69.202-38.12,95.8-51.874   c48.337-24.978,98.689-45.915,150.077-63.72c116.773-40.46,238.541-64.728,360.535-83.063   C1270.953,1238.5,1725.101,1242.595,2167.719,1315.928z"/>
	<g>
		<path style="fill:#F04E23;" d="M1562.353,1343.675c-0.012,13.522,11.521,31.979,25.418,38.448    c55.674,25.664,111.342,25.664,167.016,0c3.957-1.84,7.718-4.653,11.078-8.044c8.45-8.53,14.352-20.729,14.34-30.404    c-0.043-16.045-0.123-32.133-0.234-48.252c-0.4-56.966-1.243-114.382-2.462-172.223c-0.572-27.246-1.231-54.578-1.969-82.009    c-1.539-57.28-3.416-114.955-5.582-172.979c-1.022-27.283-2.099-54.64-3.237-82.077c-2.271-54.708-4.776-109.711-7.459-164.991    c-1.317-27.148-2.683-54.363-4.087-81.646c-1.409-27.535-2.868-55.139-4.358-82.797c-0.763-13.811-11.897-29.628-25.16-33.628    c-36.25-10.881-72.507-10.881-108.757,0c-11.977,3.613-22.224,16.876-24.655,29.585c-0.259,1.36-0.431,2.708-0.505,4.044    c-1.717,31.905-3.391,63.73-5.004,95.463c-2.382,46.651-4.647,93.118-6.764,139.382c-1.489,32.533-2.911,64.967-4.247,97.297    c-2.08,50.215-3.963,100.184-5.619,149.875c-1.083,32.613-2.074,65.109-2.948,97.482c-1.379,50.443-2.486,100.59-3.293,150.411    c-0.542,33.407-0.948,66.672-1.206,99.784C1562.506,1305.541,1562.402,1324.632,1562.353,1343.675z"/>
		<path style="fill:#FFFFFF;" d="M1586.737,552.164c51.027,36.127,110.646,60.241,172.524,68.98    c-1.317-27.148-2.683-54.363-4.087-81.646c-61.324-11.749-118.998-42.472-162.929-86.841c-0.259,1.36-0.431,2.708-0.505,4.044    C1590.023,488.606,1588.349,520.431,1586.737,552.164z"/>
		<path style="fill:#FFFFFF;" d="M1575.726,788.843c58.308,39.549,124.913,66.986,194.231,79.369    c-1.022-27.283-2.099-54.64-3.237-82.077c-68.802-15.232-133.714-48.172-186.747-94.589    C1578.484,724.078,1577.062,756.513,1575.726,788.843z"/>
		<path style="fill:#FFFFFF;" d="M1567.159,1036.2c63.404,42.62,135.375,72.599,210.35,87c-0.572-27.246-1.231-54.578-1.969-82.009    c-75.252-17.214-146.355-52.757-205.432-102.473C1569.024,971.331,1568.033,1003.827,1567.159,1036.2z"/>
		<path style="fill:#FFFFFF;" d="M1562.66,1286.394c61.225,41.999,130.661,72.125,203.205,87.684    c8.45-8.53,14.352-20.729,14.34-30.404c-0.043-16.045-0.123-32.133-0.234-48.252c-79.566-17.399-154.688-55.299-216.104-108.812    C1563.325,1220.018,1562.919,1253.283,1562.66,1286.394z"/>
		<ellipse style="fill:#04294F;" cx="1671.279" cy="442.848" rx="59.084" ry="19.257"/>
		<g>
			<path style="fill:#04294F;" d="M1015.932,1403.463c183.757,15.424,367.514,15.424,551.271,0     c17.768-1.543,35.344-17.396,38.55-35.196c20.441-115.98,20.441-231.96,0-347.94c-3.207-17.8-20.782-33.653-38.55-35.196     c-183.757-15.424-367.514-15.424-551.271,0c-17.769,1.544-35.344,17.396-38.55,35.196c-20.441,115.98-20.441,231.96,0,347.94     C980.588,1386.066,998.163,1401.92,1015.932,1403.463z"/>
			<path style="fill:#FFFFFF;" d="M1053.543,1150.128c15.282,4.679,30.564,4.679,45.846,0c2.14-33.422,2.14-66.843,0-100.264     c-15.282-4.679-30.564-4.679-45.846,0C1051.404,1083.286,1051.404,1116.707,1053.543,1150.128z"/>
			<path style="fill:#FFFFFF;" d="M1161.682,1150.128c15.282,4.679,30.564,4.679,45.846,0c2.139-33.422,2.139-66.843,0-100.264     c-15.282-4.679-30.564-4.679-45.846,0C1159.542,1083.286,1159.542,1116.707,1161.682,1150.128z"/>
			<path style="fill:#FFFFFF;" d="M1486.097,1150.128c15.282,4.679,30.564,4.679,45.846,0c2.14-33.422,2.14-66.843,0-100.264     c-15.282-4.679-30.564-4.679-45.846,0C1483.958,1083.286,1483.958,1116.707,1486.097,1150.128z"/>
			<path style="fill:#FFFFFF;" d="M1161.682,1314.769c15.282,4.679,30.564,4.679,45.846,0c2.139-33.422,2.139-66.843,0-100.264     c-15.282-4.679-30.564-4.679-45.846,0C1159.542,1247.926,1159.542,1281.348,1161.682,1314.769z"/>
			<path style="fill:#FFFFFF;" d="M1377.959,1314.769c15.282,4.679,30.564,4.679,45.846,0c2.14-33.422,2.14-66.843,0-100.264     c-15.282-4.679-30.564-4.679-45.846,0C1375.819,1247.926,1375.819,1281.348,1377.959,1314.769z"/>
			<path style="fill:#FFFFFF;" d="M1486.097,1314.769c15.282,4.679,30.564,4.679,45.846,0c2.14-33.422,2.14-66.843,0-100.264     c-15.282-4.679-30.564-4.679-45.846,0C1483.958,1247.926,1483.958,1281.348,1486.097,1314.769z"/>
		</g>
	</g>
	<path style="fill:#FFFFFF;" d="M2180.807,1298.538c-14.141,20.604-30.955,38.453-49.75,54.052   c-58.769-52.963-97.987-131.301-114.757-210.071c-25.221-118.537-10.72-241.341-8.938-362.525   c1.782-121.175-11.819-249.487-83.621-347.124c-31.045-42.207-90.516-125.486-188.896-99.603   c-45.039,11.849-67.639,66.858-67.639,66.858s-80.468-99.942-168.463-25.502c-49.132,41.564-39.762,108.069-43.264,172.328   c-3.511,64.251-7.462,133.731-48.616,183.202c-47.212,56.762-129.537,69.525-203.185,64.314   c-73.648-5.221-147.152-24.312-220.431-15.257c-122.831,15.185-223.87,107.871-288.138,213.644   c-64.26,105.773-99.689,226.066-148.232,339.913c-31.801,74.584-71.263,148.664-124.343,209.135   c-6.814-0.891-13.628-1.809-20.433-2.745c-113.686-15.626-327.213-47.787-378.799-171.698   c-49.444-118.744-13.106-314.8,42.855-424.03c62.577-122.147,174.327-218.199,304.485-261.72   c201.772-67.473,443.788-15.176,616.134-139.915c102.623-74.278,158.629-198.099,255.221-280.073   c126.683-107.52,313.9-128.277,470.503-72.748c156.603,55.529,283.053,179.206,365.108,323.693   c82.055,144.479,123.056,308.967,145.226,473.636C2237.181,1092.869,2241.655,1209.885,2180.807,1298.538z"/>
	<path style="fill:#FFFFFF;" d="M1305.943,142.326c1.256,3.29-1.985,8.249-8.69,14.299c-1.677,1.513-3.571,3.093-5.669,4.734   c-2.076,1.69-4.304,3.561-6.744,5.43c-4.847,3.811-10.552,7.625-16.59,12.262c-3.051,2.251-6.261,4.552-9.62,6.895   c-1.701,1.13-3.334,2.467-5.047,3.728c-1.707,1.267-3.446,2.557-5.216,3.87c-1.776,1.288-3.583,2.598-5.419,3.928   c-0.916,0.666-1.857,1.305-2.774,1.999c-0.909,0.707-1.825,1.419-2.747,2.137c-3.694,2.859-7.511,5.753-11.444,8.673   c-15.464,12.092-32.119,25.595-48.956,40.546c-16.704,15.099-31.949,30.176-45.661,44.223c-3.334,3.59-6.628,7.067-9.874,10.425   c-0.814,0.838-1.623,1.671-2.425,2.497c-0.79,0.836-1.529,1.702-2.291,2.539c-1.524,1.679-3.023,3.332-4.498,4.956   c-1.499,1.615-2.972,3.202-4.418,4.761c-1.442,1.565-2.949,3.042-4.259,4.609c-2.696,3.082-5.335,6.021-7.906,8.807   c-5.27,5.493-9.686,10.747-14.005,15.147c-2.126,2.221-4.229,4.231-6.136,6.109c-1.86,1.906-3.639,3.616-5.326,5.117   c-6.747,6.002-12.031,8.681-15.164,7.072c-3.133-1.609-3.806-7.388-2.216-16.682c0.397-2.323,0.936-4.864,1.613-7.612   c0.723-2.72,1.697-5.581,2.757-8.663c2.186-6.122,4.722-13.143,8.398-20.411c1.776-3.675,3.691-7.505,5.741-11.477   c0.987-2.013,2.189-3.931,3.345-5.938c1.186-1.991,2.393-4.018,3.622-6.081c1.253-2.053,2.527-4.142,3.822-6.263   c0.66-1.053,1.301-2.135,1.998-3.185c0.715-1.037,1.435-2.083,2.161-3.135c2.915-4.206,5.961-8.515,9.129-12.909   c13.039-17.259,28.964-35.13,47.546-51.907c18.711-16.634,38.218-30.506,56.8-41.578c4.715-2.668,9.331-5.224,13.831-7.661   c1.126-0.606,2.244-1.208,3.353-1.805c1.12-0.578,2.265-1.097,3.385-1.637c2.251-1.055,4.466-2.093,6.644-3.113   c2.185-0.995,4.333-1.974,6.441-2.934c2.122-0.93,4.16-1.914,6.269-2.675c4.172-1.603,8.189-3.087,12.036-4.45   c7.626-2.859,14.883-4.611,21.208-6.114c3.18-0.716,6.129-1.371,8.913-1.792c2.805-0.372,5.39-0.629,7.742-0.77   C1299.016,137.734,1304.687,139.036,1305.943,142.326z"/>
	<path style="fill:#FFFFFF;" d="M916.134,473.199c1.042,1.42,0.413,3.978-1.813,7.6c-0.557,0.905-1.211,1.879-1.968,2.912   c-0.773,1.009-1.646,2.08-2.617,3.212c-0.971,1.132-2.041,2.325-3.208,3.577c-1.177,1.236-2.475,2.492-3.858,3.823   c-5.525,5.332-12.768,11.281-21.664,17.515c-8.891,6.237-19.459,12.72-31.574,19.029c-12.114,6.301-25.758,12.488-40.715,18.13   c-14.951,5.661-31.187,10.888-48.41,15.482c-34.449,9.268-72.78,16.021-112.631,21.205c-39.741,5.154-77.142,8.951-110.719,13.242   c-4.194,0.54-8.335,1.074-12.421,1.6c-4.085,0.527-8.075,1.138-12.037,1.673c-7.943,1.022-15.528,2.323-22.947,3.386   c-3.698,0.561-7.287,1.23-10.845,1.804c-1.778,0.292-3.539,0.582-5.283,0.869c-0.874,0.141-1.743,0.282-2.608,0.422   c-0.857,0.161-1.709,0.322-2.558,0.481c-3.402,0.627-6.735,1.241-9.997,1.842c-1.636,0.293-3.255,0.583-4.855,0.869   c-1.585,0.328-3.152,0.651-4.701,0.971c-6.193,1.292-12.185,2.333-17.729,3.654c-2.801,0.602-5.523,1.187-8.162,1.754   c-1.321,0.286-2.641,0.525-3.911,0.827c-1.27,0.304-2.52,0.603-3.748,0.897c-4.916,1.179-9.574,2.14-13.846,3.097   c-4.232,1.041-8.153,1.922-11.735,2.636c-1.803,0.34-3.506,0.661-5.105,0.962c-1.586,0.336-3.085,0.626-4.495,0.867   c-2.82,0.482-5.283,0.77-7.357,0.855c-4.15,0.168-6.751-0.48-7.557-2.046c-0.806-1.566,0.224-3.977,2.99-7.166   c1.383-1.595,3.199-3.383,5.435-5.356c1.118-0.987,2.341-2.019,3.666-3.096c1.337-1.05,2.808-2.072,4.365-3.17   c3.122-2.179,6.654-4.513,10.579-6.991c3.956-2.389,8.36-4.759,13.114-7.326c1.193-0.633,2.407-1.277,3.641-1.933   c1.239-0.645,2.522-1.222,3.817-1.846c2.605-1.215,5.293-2.467,8.059-3.757c5.533-2.645,11.521-4.952,17.811-7.476   c1.576-0.621,3.172-1.25,4.785-1.886c1.626-0.579,3.271-1.165,4.934-1.757c3.339-1.163,6.751-2.351,10.233-3.563   c0.873-0.298,1.751-0.598,2.632-0.9c0.886-0.276,1.775-0.552,2.67-0.83c1.791-0.552,3.599-1.109,5.425-1.672   c3.655-1.101,7.381-2.287,11.186-3.342c7.612-2.046,15.51-4.282,23.667-6.144c4.078-0.957,8.223-1.978,12.423-2.89   c4.204-0.888,8.464-1.787,12.778-2.698c34.535-7.063,72.518-12.355,111.788-17.453c39.149-5.092,75.887-10.184,108.733-16.435   c32.867-6.162,61.794-13.527,85.729-21.079c23.948-7.506,42.97-15.039,56.557-20.055c1.697-0.628,3.333-1.181,4.864-1.716   c1.521-0.55,2.965-1.042,4.328-1.475c1.363-0.433,2.645-0.806,3.842-1.118c1.181-0.335,2.275-0.613,3.285-0.821   C912.432,471.561,915.092,471.779,916.134,473.199z"/>
	<path style="fill:#FFFFFF;" d="M2191.573,484c-3.186,1.5-8.466-1.589-15.188-8.27c-1.681-1.671-3.452-3.568-5.303-5.675   c-1.894-2.086-3.971-4.331-6.076-6.796c-4.27-4.897-8.652-10.685-13.83-16.837c-2.531-3.108-5.129-6.383-7.782-9.814   c-1.292-1.737-2.765-3.409-4.18-5.163c-1.418-1.749-2.862-3.531-4.332-5.344c-1.446-1.822-2.916-3.674-4.41-5.557   c-0.747-0.939-1.472-1.904-2.245-2.847c-0.784-0.935-1.574-1.876-2.37-2.825c-3.172-3.8-6.392-7.729-9.65-11.78   c-13.384-15.949-28.222-33.211-44.43-50.778c-16.338-17.447-32.471-33.505-47.401-48.017c-3.802-3.544-7.486-7.042-11.044-10.483   c-0.888-0.863-1.77-1.72-2.645-2.57c-0.884-0.84-1.793-1.633-2.676-2.447c-1.768-1.627-3.509-3.229-5.22-4.803   c-1.701-1.598-3.372-3.168-5.013-4.71c-1.646-1.539-3.207-3.131-4.845-4.546c-3.228-2.897-6.304-5.726-9.22-8.478   c-5.758-5.613-11.21-10.406-15.783-15.022c-2.305-2.279-4.392-4.514-6.335-6.556c-1.967-2-3.729-3.905-5.273-5.703   c-6.173-7.191-8.869-12.683-7.14-15.751c1.729-3.068,7.745-3.413,17.328-1.296c2.395,0.529,5.012,1.211,7.838,2.042   c2.801,0.872,5.749,1.99,8.919,3.211c6.302,2.5,13.5,5.412,20.987,9.416c3.781,1.947,7.72,4.04,11.802,6.272   c2.066,1.083,4.05,2.359,6.118,3.602c2.052,1.269,4.143,2.561,6.27,3.876c2.116,1.338,4.269,2.699,6.456,4.082   c1.086,0.702,2.199,1.39,3.284,2.128c1.074,0.754,2.155,1.514,3.245,2.279c4.353,3.073,8.812,6.279,13.36,9.61   c17.907,13.649,36.563,30.111,54.357,49.128c17.667,19.134,32.725,38.941,45.031,57.797c2.99,4.779,5.862,9.459,8.609,14.025   c0.684,1.143,1.363,2.277,2.036,3.403c0.657,1.137,1.261,2.296,1.883,3.431c1.219,2.282,2.419,4.529,3.599,6.737   c1.156,2.217,2.292,4.396,3.408,6.536c1.088,2.154,2.216,4.226,3.146,6.365c1.928,4.234,3.729,8.316,5.394,12.228   c3.446,7.759,5.826,15.151,7.859,21.618c0.986,3.251,1.886,6.273,2.552,9.13c0.623,2.879,1.113,5.539,1.465,7.966   C2195.542,476.524,2194.76,482.5,2191.573,484z"/>
	<path style="fill:#FFFFFF;" d="M1534.036,40.225c-0.507,1.687-2.189,2.996-4.885,3.957c-1.348,0.481-2.949,0.874-4.784,1.183   c-0.918,0.154-1.894,0.288-2.926,0.401c-1.035,0.122-2.136,0.258-3.286,0.357c-2.303,0.207-4.823,0.339-7.543,0.397   c-2.729,0.092-5.678,0.193-8.802,0.186c-3.117-0.041-6.464,0.059-9.963,0.014c-3.494-0.074-7.197-0.008-11.046-0.052   c-3.842-0.093-7.885,0.031-12.05-0.024c-2.082-0.043-4.218,0.041-6.38,0.052c-2.159,0.016-4.358,0.033-6.596,0.05   c-2.233,0.052-4.505,0.104-6.813,0.158c-1.151,0.021-2.31,0.043-3.479,0.064c-1.168,0.046-2.346,0.092-3.532,0.138   c-2.366,0.081-4.766,0.163-7.2,0.246c-2.429,0.123-4.89,0.247-7.382,0.373c-2.488,0.08-5.006,0.306-7.55,0.46   c-2.543,0.176-5.114,0.285-7.708,0.539c-2.592,0.208-5.212,0.418-7.857,0.629c-2.639,0.264-5.303,0.53-7.991,0.798   c-10.74,1.133-21.815,2.553-33.111,4.335c-11.285,1.849-22.247,3.971-32.801,6.262c-2.637,0.588-5.25,1.17-7.839,1.747   c-2.578,0.628-5.132,1.25-7.658,1.865c-2.543,0.572-5.018,1.274-7.488,1.904c-2.464,0.651-4.926,1.226-7.314,1.93   c-2.406,0.661-4.782,1.315-7.127,1.959c-2.337,0.684-4.642,1.359-6.914,2.024c-1.141,0.328-2.273,0.653-3.397,0.976   c-1.116,0.346-2.224,0.689-3.324,1.03c-2.209,0.673-4.382,1.335-6.519,1.986c-2.13,0.685-4.224,1.359-6.279,2.02   c-2.057,0.668-4.111,1.257-6.074,1.951c-3.939,1.358-7.816,2.508-11.436,3.8c-3.642,1.248-7.179,2.346-10.474,3.511   c-3.309,1.139-6.519,2.093-9.465,3.109c-2.964,0.986-5.796,1.814-8.416,2.582c-2.601,0.797-5.036,1.462-7.288,1.987   c-1.123,0.266-2.211,0.483-3.232,0.691c-1.016,0.217-1.984,0.396-2.904,0.537c-1.84,0.282-3.483,0.41-4.914,0.376   c-2.861-0.068-4.869-0.784-5.879-2.227c-1.01-1.443-0.971-3.546,0.067-6.255c0.519-1.354,1.287-2.86,2.298-4.51   c0.505-0.825,1.071-1.685,1.697-2.581c0.631-0.887,1.341-1.779,2.1-2.719c1.524-1.872,3.286-3.873,5.279-5.993   c2.01-2.091,4.294-4.228,6.78-6.506c2.469-2.309,5.265-4.536,8.236-6.928c2.957-2.418,6.225-4.743,9.675-7.189   c3.429-2.491,7.185-4.807,11.082-7.295c1.943-1.258,3.992-2.402,6.064-3.614c2.08-1.193,4.196-2.428,6.381-3.619   c2.205-1.151,4.449-2.322,6.729-3.512c1.146-0.585,2.295-1.192,3.469-1.764c1.181-0.559,2.37-1.122,3.568-1.689   c2.404-1.121,4.838-2.283,7.336-3.385c2.516-1.062,5.066-2.138,7.648-3.227c2.579-1.111,5.246-2.074,7.931-3.097   c2.692-1.002,5.405-2.058,8.198-2.963c2.789-0.926,5.607-1.862,8.453-2.808c2.877-0.848,5.781-1.703,8.712-2.567   c11.768-3.298,24.14-6.081,36.941-8.173c12.812-2.026,25.433-3.261,37.642-3.818c3.053-0.099,6.08-0.196,9.077-0.293   c2.999,0.005,5.969,0.011,8.907,0.017c2.936-0.016,5.843,0.137,8.713,0.244c2.87,0.13,5.705,0.209,8.502,0.455   c2.793,0.225,5.552,0.448,8.274,0.667c2.718,0.263,5.394,0.605,8.027,0.916c1.316,0.163,2.622,0.325,3.918,0.486   c1.295,0.175,2.576,0.392,3.848,0.588c2.537,0.415,5.035,0.824,7.49,1.226c2.448,0.446,4.844,0.956,7.194,1.437   c2.348,0.501,4.652,0.945,6.891,1.531c4.48,1.141,8.773,2.163,12.81,3.454c4.043,1.242,7.875,2.425,11.441,3.794   c3.57,1.34,6.924,2.578,9.992,3.997c3.074,1.384,5.913,2.698,8.477,4.053c2.557,1.389,4.857,2.737,6.891,4.037   c1.016,0.654,1.969,1.279,2.847,1.924c0.875,0.654,1.682,1.294,2.42,1.919c1.477,1.249,2.678,2.438,3.595,3.562   C1533.846,36.553,1534.542,38.538,1534.036,40.225z"/>
</g>

        </g>
    </g>
</g>

<!-- ITEM 1 -->
<g>
    <defs>
        
        <clipPath id="clip-path-id-viewbox-item-1">
            <rect x="0.0" y="0.0" width="1111.415" height="1189.364"/>
        </clipPath>
    </defs>
    <g transform="translate(46.0 684.0) rotate(0.0 294.5 314.0) scale(0.5299550572918307 0.5280132911371119)">
        <g clip-path="url(#clip-path-id-viewbox-item-1)" transform="translate(-0.0 -0.0)">

<g>
	<g>
		<path style="fill:#04294F;" d="M225.493,981.445c-10.497-6.059-14.095-19.481-8.036-29.978l146.251-253.366    c6.059-10.497,19.481-14.095,29.978-8.036c10.497,6.059,14.095,19.481,8.036,29.978L255.471,973.41    C249.412,983.907,235.99,987.505,225.493,981.445z"/>
		<path style="fill:#04294F;" d="M336.301,789.48l-96.555-55.735c-10.497-6.059-14.095-19.481-8.036-29.978    c6.059-10.497,19.481-14.095,29.978-8.036l96.555,55.735c10.497,6.059,14.095,19.481,8.036,29.978S346.798,795.54,336.301,789.48z    "/>
	</g>
	<path style="fill:#FFB400;" d="M116.757,728.846c6.344,9.759,15.644,17.178,23.196,26.036s13.565,20.383,11.22,31.784   c-1.58,7.682-6.688,14.078-10.22,21.081c-3.532,7.002-5.287,16.084-0.452,22.259c5.679,7.253,17.069,6.365,25.468,2.579   c18.882-8.512,31.879-28.697,31.814-49.408c-0.028-8.879-2.237-17.59-4.431-26.194c-3.507-13.752-7.015-27.503-10.522-41.255   c-3.421-13.412-7.301-27.617-17.493-36.982c-8.562-7.867-21.332-11.153-32.412-7.63   C110.357,678.293,105.025,710.797,116.757,728.846z"/>
	<path style="fill:#FFB400;" d="M70.458,713.817c0.074,9.234,2.303,18.358,2.252,27.592c-0.05,9.234-2.972,19.241-10.646,24.376   c-6.517,4.361-14.996,4.293-22.769,3.255s-15.643-2.885-23.366-1.53s-15.423,7.083-15.905,14.91   c-0.328,5.333,2.799,10.429,7.009,13.721c4.209,3.291,9.391,5.059,14.528,6.528c14.094,4.031,29.382,6.202,43.271,1.513   c15.171-5.121,26.772-17.927,33.949-32.241s10.5-30.197,13.754-45.876c1.811-8.727,3.63-17.67,2.347-26.49   c-1.283-8.82-6.318-17.64-14.598-20.938C81.482,671.15,70.345,699.659,70.458,713.817z"/>
	<path style="fill:#FFB400;" d="M96.12,711.784c-3.816,17.03-3.932,34.935-9.952,51.315c-6.02,16.381-20.518,31.668-37.948,30.801   c-5.924-0.295-11.61-2.423-17.503-3.094c-5.893-0.671-12.621,0.534-16.099,5.338c-4.541,6.271-1.3,15.311,3.78,21.154   c10.326,11.879,27.314,16.834,42.874,14.463s29.61-11.386,40.078-23.14c10.468-11.754,17.619-26.119,23.014-40.905   c7.364-20.18,11.669-41.473,12.722-62.928c0.616-12.548-3.461-32.978-20.94-29.738C103.225,677.445,98.453,701.373,96.12,711.784z"/>
	<path style="fill:#FFB400;" d="M115.681,718.494c-2.389,31.416-17.962,61.621-42.169,81.788   c-4.543,3.785-9.405,7.262-13.262,11.744s-6.679,10.238-6.169,16.13c0.961,11.093,13.138,18.015,24.253,18.685   c14.137,0.852,28.065-5.211,38.95-14.271s19.065-20.932,26.217-33.156c6.973-11.918,13.212-24.663,14.701-38.39   c1.489-13.727-2.514-28.695-13.117-37.539c-10.604-8.844-28.291-9.297-37.396,1.083"/>
	<path style="fill:#FFB400;" d="M75.998,735.63c-5.417,5.507-13.349,8.435-21.045,7.77c-4.253-0.368-8.569-1.761-12.701-0.691   c-6.581,1.705-10.214,9.614-8.709,16.243c1.505,6.629,6.994,11.774,13.148,14.662c11.232,5.271,25.668,3.651,34.722-4.832   c9.054-8.483,11.414-23.627,4.478-33.914"/>
	<path style="fill:#FFB400;" d="M646.734,337.192c-8.39,1.405-14.816,9.829-23.234,11.009c-7.819,1.096-15.893-5.381-17.379-13.941   c-1.486-8.561,3.844-17.884,11.474-20.069c4.874-1.396,10.008-0.138,15.043-0.136c5.035,0.002,10.769-1.894,12.76-7.009   c2.077-5.335-0.813-11.902,1.409-17.166c2.089-4.948,8.023-6.585,12.802-5.212c4.779,1.373,8.731,4.963,12.718,8.183   c0.545,0.44,1.081,0.854,1.61,1.242c2.832,2.081,6.843,0.084,6.901-3.43c0.294-17.801,0.259-35.602-0.118-53.402   c-2.531-70.602-69.665-142.148-140.746-143.17c-71.083,1.021-138.215,72.567-140.746,143.17   c-1.212,57.25,1.036,114.498,6.746,171.748c1.146,11.133,11.271,21.8,22.414,23.464c74.391,10.826,148.781,10.826,223.172,0   c11.145-1.666,21.266-12.331,22.414-23.464c1.504-15.077,2.761-30.154,3.782-45.23c0.536-7.915-3.442-15.446-10.264-19.495   C660.724,340.266,654.087,335.961,646.734,337.192z"/>
	<path style="fill:#FFB400;" d="M897.03,244.85c-6.858-7.537-12.745-16.493-14.095-26.593c-1.35-10.1,2.818-21.42,11.854-26.128   c-3.407-10.197-0.989-22.126,6.118-30.192c7.107-8.066,18.637-11.965,29.182-9.869c-1.559-9.006,2.001-18.723,9.009-24.59   s17.2-7.663,25.791-4.544c11.174-9.653,28.533-9.102,41.656-2.333c13.123,6.769,22.843,18.576,31.592,30.471   c11.693,15.898,22.708,33.547,23.91,53.246c1.274,20.875-9.227,41.541-25.314,54.906C996.553,292.603,930.98,282.165,897.03,244.85   z"/>
	<path style="fill:#FFB400;" d="M928.741,292.928c-9.63-2.57-19.278-6.624-25.876-14.095c-6.598-7.471-9.346-19.017-4.367-27.652   c6.11-10.595,20.313-12.747,32.543-12.836c19.283-0.142,38.581,1.95,57.385,6.219c7.792,1.769,15.7,4.006,22.119,8.764   c6.418,4.759,11.122,12.557,10.162,20.489c-1.758,14.535-26.19,18.041-37.701,20.463   C965.141,298.038,946.389,297.638,928.741,292.928z"/>
	<path style="fill:#FFB400;" d="M1005.062,331.258c0.952,1.228,1.986,2.517,3.467,3.057c2.309,0.843,4.788-0.404,6.883-1.612   c23.538-13.567,47.076-27.133,70.613-40.7c-17.309-23.739-29.943-50.616-37.009-78.733c-14.186,11.516-32.456,17.322-47.582,27.67   c-12.168,8.324-22.108,19.607-28.805,32.493c-2.776,5.341-4.827,9.36-1.102,14.662c4.664,6.639,10.081,12.91,15.063,19.336   C992.747,315.375,998.904,323.316,1005.062,331.258z"/>
	<path style="fill:#04294F;" d="M771.359,1186.208c-10.306,0.736-29.784,3.156-73.074,3.156c-40.661,0-54.684-1.716-62.119-2.926   c-3.475-0.726-6.038-3.662-6.269-7.204c-0.847-7.853-0.462-12.01,0.55-23.119c0.341-3.893,0.781-7.952,1.265-11.779   c0.066-2.464,0.088-4.916,0.088-7.38v-1.276c-0.033-7.215-0.33-14.408-0.869-21.59h113.9c-0.044,0.33-0.077,0.649-0.121,0.979   c-0.363,7.732-0.813,8.985,1.09,14.738c1.1,3.387,2.673,6.291,4.795,8.568c4.146,4.312,20.373,1.216,25.377,5.716   C805.388,1176.591,791.586,1184.763,771.359,1186.208z"/>
	<path style="fill:#04294F;" d="M363.741,1179.249c-7.365-7.247-22.056-20.262-50.672-52.745   c-26.878-30.51-34.861-42.167-38.868-48.546c-1.753-3.088-1.243-6.952,1.262-9.466c5.333-5.826,8.707-8.286,17.711-14.87   c3.147-2.318,6.483-4.67,9.675-6.837c1.892-1.579,3.747-3.184,5.596-4.812l0.957-0.843c5.392-4.794,10.593-9.772,15.626-14.924   l75.291,85.466c-0.277,0.185-0.538,0.371-0.815,0.556c-6.042,4.839-7.28,5.33-10.338,10.56c-1.815,3.065-2.954,6.164-3.259,9.262   c-0.494,5.961,12.554,16.091,12.486,22.82C393.452,1198.426,378.196,1193.472,363.741,1179.249z"/>
	<path style="fill-rule:evenodd;clip-rule:evenodd;fill:#04294F;" d="M672.471,756.758h-152.06v128.667   c49.725,27.775,100.393,36.305,152.06,23.517V756.758z"/>
	<path style="fill-rule:evenodd;clip-rule:evenodd;fill:#04294F;" d="M400.319,756.758v148.796   c53.692,16.777,108.478,10.916,164.426-20.13V756.758H400.319z"/>
	<path style="fill:#04294F;" d="M745.352,828.673c-131.96,19.01-263.921,19.01-395.881,0c-2.208-0.318-4.238-2.376-4.528-4.582   c-18.143-138.667-18.143-277.333,0-416c0.291-2.206,2.321-4.263,4.528-4.582c131.96-19.01,263.921-19.01,395.881,0   c2.208,0.319,4.238,2.374,4.528,4.582c18.143,138.667,18.143,277.333,0,416C749.592,826.298,747.559,828.354,745.352,828.673z"/>
	<path style="fill:#04294F;" d="M745.352,1128.587c-38.627,13.965-77.254,13.965-115.881,0c-2.208-0.802-4.09-3.291-4.2-5.496   c-5.514-111.333-5.514-222.667,0-334c0.11-2.203,1.993-4.696,4.2-5.496c38.627-13.965,77.254-13.965,115.881,0   c2.209,0.802,4.09,3.291,4.2,5.496c5.514,111.333,5.514,222.667,0,334C749.441,1125.296,747.56,1127.785,745.352,1128.587z"/>
	<path style="fill:#04294F;" d="M308.714,1044.139c-0.758-1.554-0.401-3.427,0.844-4.629c12.517-12.072,27.674-20.665,39.568-33.397   c11.162-11.949,21.848-27.617,25.886-43.686c4.661-18.55,1.36-38.18-4.025-56.158c-6.315-21.088-10.94-42.505-18.366-63.31   c-2.338-5.961-4.653-11.942-6.873-17.982c0,0,105.998-49.518,106.003-49.52c4.019-1.878,34.822,82.142,37.246,90.322   c16.759,56.541,18.424,122.837-10.546,175.803c-17.101,31.267-41.954,52.398-70.98,72.009l-8.341,5.548l-1.971,1.298l-1.752,1.181   l-1.734,1.167l-0.869,0.582l-0.717,0.505c0,0-2.839,1.937-2.861,1.953c-1.291,0.954-3.053,1-4.419,0.158   C348.878,1103.828,324.332,1076.149,308.714,1044.139z"/>
	<path style="fill-rule:evenodd;clip-rule:evenodd;fill:#00AEE0;" d="M745.351,807.022c-143.25,27.182-252.628,27.182-395.879,0   c-5.971-1.118-12.779-6.548-14.389-12.065c-3.486-11.844-4.5-23.689-3.034-35.533c0.709-5.519,6.241-9.144,11.666-8.146   c131.178,24.528,276.216,24.528,407.394,0c5.426-0.998,10.958,2.625,11.667,8.146c1.464,11.846,0.453,23.688-3.034,35.533   C758.131,800.476,751.324,805.902,745.351,807.022z"/>
	<g>
		<path style="fill:#00AEE0;" d="M522.443,837.088c1.229,0.14,1.839,3.335,2.77,8.132c0.115,0.598,0.235,1.225,0.36,1.878    c0.12,0.65,0.3,1.32,0.441,2.014c0.26,1.391,0.667,2.851,1.021,4.388c0.814,3.057,1.801,6.365,3.054,9.767    c1.292,3.387,2.724,6.528,4.12,9.367c0.744,1.391,1.397,2.758,2.116,3.978c0.35,0.616,0.655,1.239,0.992,1.808    c0.335,0.574,0.656,1.125,0.963,1.652c2.453,4.226,4.094,7.034,3.26,7.948c-0.752,0.84-3.96-0.453-7.974-4.119    c-0.493-0.462-1.004-0.955-1.531-1.477c-0.523-0.524-1.01-1.116-1.537-1.715c-1.073-1.187-2.058-2.575-3.1-4.042    c-1.99-2.987-3.873-6.495-5.352-10.382c-1.441-3.901-2.329-7.782-2.794-11.341c-0.18-1.79-0.351-3.484-0.322-5.084    c0.003-0.798-0.019-1.564,0.03-2.303c0.053-0.74,0.114-1.447,0.182-2.119C519.757,840.033,521.324,836.949,522.443,837.088z"/>
		<path style="fill:#00AEE0;" d="M388.75,829.042c1.26-0.335,3.737,6.667,9.411,16.832c1.409,2.544,3.075,5.252,4.923,8.105    c1.91,2.814,3.976,5.793,6.373,8.753c4.736,5.957,10.564,11.983,17.357,17.477c6.837,5.439,13.984,9.821,20.827,13.151    c3.409,1.697,6.766,3.068,9.927,4.321c3.185,1.184,6.19,2.223,8.98,3.046c11.154,3.333,18.526,4.23,18.473,5.534    c-0.02,0.573-1.897,1.093-5.33,1.32c-3.431,0.233-8.417,0.05-14.507-0.936c-3.046-0.483-6.346-1.237-9.855-2.203    c-3.485-1.035-7.191-2.255-10.962-3.877c-7.563-3.178-15.48-7.726-22.928-13.656c-7.405-5.983-13.562-12.724-18.307-19.417    c-2.402-3.329-4.397-6.683-6.163-9.859c-1.705-3.215-3.157-6.273-4.29-9.142c-2.284-5.73-3.545-10.558-4.062-13.958    C388.095,831.131,388.195,829.186,388.75,829.042z"/>
		<path style="fill:#00AEE0;" d="M661.776,898.282c0.972,0.583,0.724,3.268-1.388,6.832c-0.53,0.882-1.158,1.826-1.942,2.747    c-0.743,0.966-1.664,1.871-2.646,2.826c-2.016,1.835-4.483,3.604-7.305,5.028c-2.837,1.395-5.734,2.298-8.413,2.803    c-1.353,0.208-2.63,0.399-3.849,0.41c-1.207,0.072-2.339,0.004-3.362-0.104c-4.118-0.46-6.41-1.879-6.29-3.006    c0.117-1.224,2.447-1.997,5.783-3.045c0.838-0.266,1.742-0.527,2.694-0.868c0.961-0.281,1.956-0.685,3.007-1.039    c2.082-0.798,4.317-1.72,6.6-2.838c2.268-1.15,4.35-2.379,6.241-3.56c0.915-0.626,1.837-1.177,2.64-1.775    c0.846-0.554,1.599-1.12,2.316-1.628C658.708,899.033,660.729,897.638,661.776,898.282z"/>
		<path style="fill:#00AEE0;" d="M493.813,471.037c0.591,0.045,0.901,3.874,0.957,10.745c0,3.431,0.001,7.629,0.002,12.502    c0.001,4.87-0.124,10.407-0.083,16.531c-0.01,3.06-0.021,6.266-0.033,9.606c-0.014,3.339,0.053,6.814,0.065,10.41    c-0.01,7.192,0.185,14.874,0.307,22.956c0.397,16.162,1.058,33.917,2.187,52.533c1.188,18.612,2.734,36.313,4.344,52.398    c0.881,8.034,1.64,15.681,2.542,22.817c0.435,3.57,0.798,7.026,1.227,10.338c0.426,3.313,0.834,6.493,1.224,9.528    c0.719,6.082,1.529,11.56,2.132,16.393c0.604,4.836,1.123,9.001,1.548,12.406c0.797,6.824,0.964,10.662,0.383,10.78    s-1.856-3.498-3.667-10.153c-0.437-1.667-0.924-3.521-1.456-5.55c-0.501-2.035-0.997-4.257-1.536-6.643    c-1.056-4.776-2.292-10.214-3.4-16.271c-0.567-3.027-1.162-6.199-1.781-9.504c-0.605-3.308-1.135-6.765-1.727-10.339    c-1.214-7.144-2.245-14.817-3.349-22.89c-2.056-16.165-3.857-34.003-5.055-52.778c-1.139-18.778-1.564-36.702-1.528-52.997    c0.095-8.148,0.166-15.889,0.485-23.129c0.143-3.62,0.241-7.116,0.431-10.473c0.205-3.356,0.401-6.577,0.589-9.651    c0.349-6.148,0.9-11.697,1.356-16.567c0.24-2.435,0.456-4.7,0.701-6.782c0.277-2.079,0.529-3.979,0.757-5.688    C492.405,474.738,493.222,470.992,493.813,471.037z"/>
	</g>
	<path style="fill:#04294F;" d="M377.141,402.261v115c-15.16,0-29.45,0.66-42.87,1.98c-8.85,0.87-17.32,2.02-25.4,3.47   c-40.42,7.19-71.21,21.51-91.93,42.83c-37.52,38.61-35.92,94.45-35.16,121.28c0.1,3.57,0.19,6.66,0.19,9.6h-115   c0-1.31-0.07-3.74-0.14-6.32c-1.03-35.9-3.74-131.25,67.65-204.71C188.091,430.231,269.731,402.261,377.141,402.261z"/>
	<path style="fill:#04294F;" d="M1101.781,416.351c-21.72,63.76-77.04,114.37-147.99,135.37c-21.46,6.36-42.32,8.93-62.26,8.94   c-34.76,0-66.75-7.83-94.35-17.13c-13.06-4.39-25.13-9.11-36.06-13.48c-2.1-0.84-4.16-1.67-6.17-2.48   c-12.1-4.87-28.64-11.53-34.55-12.35c0.21,0.02,0.57,0.04,1.07,0.04v-115c25.16,0,48.91,9.56,76.41,20.62   c38.3,15.42,81.7,32.88,123.27,20.58c34.7-10.28,62.21-34.11,71.78-62.2c4.81-14.13,7.07-35.79-9.5-58.69l93.18-67.41   C1111.501,301.401,1120.681,360.881,1101.781,416.351z"/>
	<path style="fill:#10294C;" d="M540.658,250.185c-0.985-1.129-1.692-2.38-2.087-3.694c-0.386-1.211-0.589-2.45-0.605-3.694   c-0.023-1.242,0.152-2.482,0.522-3.694c0.36-1.307,1.023-2.557,1.961-3.694c1.314-1.562,4.081-2.038,6.183-1.062l0.077,0.037   c0.549,0.268,1.017,0.616,1.377,1.024c0.982,1.131,1.688,2.381,2.087,3.694c0.352,1.213,0.52,2.452,0.501,3.694   c-0.019,1.243-0.215,2.481-0.584,3.694c-0.413,1.309-1.119,2.558-2.087,3.694c-1.301,1.487-3.977,1.908-5.976,0.941   c-0.505-0.244-0.936-0.565-1.264-0.941H540.658z"/>
	<g>
		<path style="fill:#10294C;" d="M661.441,233.164c0,14.147-5.048,25.611-11.282,25.611c-6.223,0-11.271-11.464-11.271-25.611    c0-2.815,0.201-5.534,0.571-8.074h21.412C661.24,227.63,661.441,230.35,661.441,233.164z"/>
		<ellipse style="fill:#04294F;" cx="636.166" cy="225.091" rx="27.385" ry="4.294"/>
	</g>
	<path style="fill:#FFFFFF;" d="M448.94,336.524c3.542-3.17,6.792-6.77,10.946-9.081c4.154-2.311,9.603-3.082,13.532-0.407   c3.736,2.544,5.112,7.628,4.303,12.075s-3.426,8.353-6.325,11.821c-14.51,17.358-38.047,26.715-60.514,24.058   c-6.089-0.72-12.512-2.528-16.389-7.278c-2.764-3.387-4.587-12.48,0.518-14.961c2.085-1.013,5.861,0.245,8.124,0.316   c3.322,0.104,6.652-0.052,9.951-0.456C426.281,350.997,439.019,345.405,448.94,336.524z"/>
	<path style="fill:#FFFFFF;" d="M654.805,50.424c-4-18.667-20-38.667-54.667-18.5c-25-44.167-84.667-41.833-125.333,2.834   c-85.333-17.333-81.667,49.667-83,70.667c-55-8.667-64.667,28-62,61.333c-43.667,23.333-19.333,75.333,6,100.583   c2.333,34.25,25.667,62.417,66.478,72.083c40.812,9.667,45.188-52.333,80.52-37.825c35.331,14.508,45.336-18.008,45.336-34.258   v-30.378c0-8.929,7.238-16.167,16.167-16.167h0c8.929,0,16.167,7.238,16.167,16.167v40.999c0,3.474,2.556,6.431,5.998,6.906   c8.953,1.235,18.963-0.236,18.963-7.955c-8.702-124.392,8.4-111.468,80.854-92.49C750.805,206.562,773.471,57.424,654.805,50.424z"/>
	<ellipse style="fill:#04294F;" cx="124.471" cy="696.424" rx="57.333" ry="11.583"/>
	
		<ellipse transform="matrix(0.8099 -0.5866 0.5866 0.8099 27.5322 658.7664)" style="fill:#04294F;" cx="1030.063" cy="286.909" rx="57.477" ry="11.583"/>
	<path style="fill:#F04E23;" d="M959.846,221.335c-0.844,0.57-3.453-2.035-7.793-5.71c-0.544-0.456-1.113-0.934-1.706-1.432   c-0.59-0.497-1.256-0.957-1.906-1.471c-1.281-1.051-2.766-2.022-4.272-3.099c-3.098-2.043-6.596-4.114-10.442-5.959   c-3.87-1.797-7.692-3.182-11.238-4.274c-1.789-0.478-3.482-1.007-5.108-1.328c-0.81-0.175-1.588-0.397-2.347-0.537   c-0.761-0.142-1.492-0.278-2.19-0.407c-5.596-1.015-9.265-1.373-9.361-2.387c-0.043-0.472,0.831-0.972,2.499-1.474   c0.417-0.125,0.883-0.25,1.397-0.375c0.514-0.109,1.075-0.181,1.681-0.267c1.211-0.15,2.605-0.358,4.144-0.342   c0.773-0.005,1.582-0.01,2.426-0.016c0.845,0.009,1.714,0.109,2.623,0.174c1.823,0.102,3.735,0.457,5.758,0.813   c4.009,0.848,8.347,2.204,12.65,4.207c4.282,2.05,8.085,4.537,11.288,7.093c1.561,1.335,3.049,2.586,4.287,3.928   c0.628,0.66,1.258,1.267,1.802,1.914c0.532,0.655,1.042,1.283,1.529,1.883c0.99,1.177,1.716,2.386,2.37,3.416   c0.318,0.522,0.62,1.001,0.862,1.467c0.23,0.476,0.43,0.916,0.598,1.317C960.069,220.075,960.238,221.068,959.846,221.335z"/>
	<path style="fill:#F04E23;" d="M982.594,184.018c-0.869,0.507-3.184-2.006-6.932-5.697c-0.469-0.459-0.96-0.941-1.471-1.442   c-0.508-0.501-1.082-0.981-1.64-1.505c-1.099-1.067-2.377-2.093-3.668-3.217c-2.661-2.163-5.666-4.414-8.987-6.536   c-3.345-2.084-6.67-3.826-9.768-5.297c-1.57-0.681-3.047-1.392-4.483-1.925c-0.714-0.278-1.393-0.59-2.065-0.832   c-0.673-0.246-1.319-0.482-1.935-0.707c-4.945-1.793-8.21-2.801-8.126-3.803c0.061-0.884,3.578-1.603,9.249-0.924   c0.705,0.102,1.444,0.209,2.214,0.32c0.769,0.124,1.55,0.328,2.369,0.51c1.648,0.341,3.349,0.905,5.149,1.491   c3.554,1.279,7.352,3.04,11.064,5.356c3.689,2.353,6.913,5.022,9.598,7.679c1.304,1.372,2.546,2.664,3.563,4.005   c0.517,0.661,1.037,1.278,1.48,1.919c0.432,0.647,0.846,1.268,1.242,1.86C982.501,180.099,983.366,183.583,982.594,184.018z"/>
	<path style="fill:#F04E23;" d="M1007.521,164.684c-0.987,0.198-2.329-2.765-4.634-7.179c-0.289-0.55-0.592-1.126-0.907-1.726   c-0.312-0.599-0.694-1.195-1.046-1.828c-0.682-1.278-1.545-2.566-2.387-3.947c-1.789-2.704-3.87-5.576-6.286-8.408   c-2.451-2.803-4.991-5.279-7.406-7.441c-1.244-1.034-2.392-2.075-3.558-2.935c-0.575-0.44-1.11-0.905-1.657-1.3   c-0.548-0.399-1.074-0.782-1.576-1.148c-4.032-2.922-6.769-4.68-6.429-5.628c0.285-0.837,3.722-0.682,8.783,1.378   c0.624,0.273,1.278,0.56,1.96,0.858c0.677,0.311,1.342,0.702,2.05,1.081c1.431,0.739,2.845,1.708,4.345,2.722   c2.926,2.121,5.934,4.769,8.687,7.922c2.72,3.182,4.903,6.543,6.576,9.746c0.786,1.632,1.539,3.171,2.062,4.694   c0.273,0.755,0.563,1.47,0.772,2.186c0.196,0.718,0.384,1.406,0.564,2.063C1008.736,161.101,1008.39,164.523,1007.521,164.684z"/>
	<path style="fill:#F04E23;" d="M931.768,241.504c0.004,0.237-0.48,0.481-1.418,0.719c-0.94,0.232-2.333,0.481-4.201,0.56   c-1.858,0.057-4.249-0.019-6.971-1c-1.342-0.495-2.746-1.206-4.074-2.254c-1.332-1.039-2.581-2.414-3.513-4.142   c-0.949-1.762-1.479-3.771-1.53-5.934c-0.033-2.144,0.402-4.558,1.952-6.76c0.772-1.081,1.79-2.031,2.957-2.712   c1.16-0.692,2.418-1.136,3.652-1.391c1.241-0.267,2.463-0.346,3.664-0.346c0.604-0.001,1.177,0.056,1.763,0.102   c0.582,0.063,1.181,0.064,1.76,0.186c2.357,0.321,4.689,1.026,6.974,1.94c2.278,0.941,4.447,2.209,6.516,3.675   c4.097,2.986,7.654,6.96,10.25,11.632c1.341,2.323,2.286,4.782,3.087,7.289c0.761,2.572,1.152,5.172,1.187,7.782   c0.047,2.603-0.297,5.239-1.199,7.786c-0.879,2.532-2.526,5.003-4.804,6.687c-2.296,1.718-5.145,2.412-7.64,2.36   c-2.522-0.051-4.778-0.709-6.756-1.611c-2.008-0.917-3.659-2.093-5.108-3.241c-1.457-1.16-2.715-2.334-3.886-3.433   c-2.322-2.205-4.308-4.131-6.191-5.502c-1.89-1.389-3.669-2.328-5.196-2.839c-3.062-1.056-5.038-0.6-5.188-1.121   c-0.067-0.203,0.325-0.626,1.281-1.004c0.943-0.374,2.493-0.71,4.454-0.492c1.966,0.181,4.28,0.918,6.68,2.197   c2.43,1.284,4.822,3.131,7.32,5.073c1.25,0.964,2.53,1.957,3.871,2.855c1.347,0.902,2.742,1.725,4.186,2.263   c1.456,0.555,3.03,0.874,4.502,0.816c1.473-0.071,2.79-0.499,3.848-1.364c1.058-0.886,1.914-2.153,2.428-3.791   c0.517-1.625,0.752-3.519,0.669-5.489c-0.063-1.967-0.4-4.011-1.004-5.966c-0.665-1.979-1.445-4.029-2.544-5.912   c-4.223-7.662-11.523-13.043-18.755-14.34c-0.447-0.122-0.902-0.127-1.349-0.2c-0.448-0.056-0.9-0.128-1.321-0.146   c-0.846-0.041-1.656-0.025-2.373,0.091c-1.461,0.219-2.475,0.755-3.175,1.587c-0.703,0.815-1.13,2.102-1.208,3.407   c-0.087,1.307,0.135,2.641,0.592,3.732c0.937,2.294,2.846,3.973,4.772,5.015c1.929,1.047,3.942,1.518,5.614,1.848   c1.684,0.321,3.058,0.508,3.99,0.723C931.265,241.048,931.764,241.267,931.768,241.504z"/>
	<path style="fill:#F04E23;" d="M929.008,161.221c0.257,0.944-1.037,2.13-2.886,3.7c-0.936,0.776-1.997,1.699-3.138,2.714   c-1.122,1.044-2.313,2.194-3.496,3.474c-1.164,1.297-2.198,2.59-3.133,3.804c-0.904,1.23-1.724,2.373-2.41,3.377   c-1.391,1.988-2.451,3.387-3.415,3.219c-0.899-0.147-1.539-1.984-1.141-4.906c0.189-1.456,0.694-3.135,1.508-4.898   c0.841-1.743,2.009-3.556,3.511-5.223c1.52-1.651,3.215-2.982,4.873-3.982c1.679-0.974,3.304-1.634,4.736-1.958   C926.889,159.873,928.777,160.34,929.008,161.221z"/>
	<path style="fill:#F04E23;" d="M967.948,131.224c-0.18,0.959-1.642,1.512-3.617,2.144c-0.994,0.303-2.127,0.673-3.348,1.073   c-1.217,0.432-2.52,0.911-3.864,1.484c-1.335,0.595-2.573,1.223-3.718,1.821c-1.124,0.622-2.166,1.201-3.065,1.722   c-1.807,1.016-3.208,1.711-4.033,1.19c-0.777-0.481-0.778-2.24,0.5-4.526c0.628-1.141,1.606-2.351,2.877-3.509   c1.286-1.132,2.876-2.193,4.692-2.996c1.825-0.784,3.684-1.226,5.389-1.398c1.713-0.143,3.265-0.036,4.529,0.281   C966.837,129.13,968.124,130.328,967.948,131.224z"/>
	<path style="fill:#F04E23;" d="M998.472,281.841c0.845,0.814,0.774,2.473-0.283,4.447c-1.044,1.966-3.114,4.2-5.924,5.896   c-2.812,1.692-5.754,2.479-7.98,2.483c-2.239,0.012-3.739-0.7-4.064-1.828c-0.332-1.149,0.501-2.488,1.91-3.85   c1.422-1.365,3.412-2.787,5.702-4.161c2.285-1.382,4.472-2.478,6.343-3.097C996.039,281.122,997.611,281.01,998.472,281.841z"/>
	<path style="fill:#F04E23;" d="M149.404,778.014c-0.992,0.135-2.105-3.502-6.261-7.586c-2.031-2.088-4.782-4.21-8.118-6.651   c-1.66-1.229-3.452-2.545-5.282-4.083c-1.828-1.517-3.697-3.334-5.346-5.373c-0.86-0.994-1.575-2.074-2.318-3.11   c-0.663-1.087-1.359-2.133-1.904-3.237c-1.18-2.16-2.042-4.375-2.743-6.508c-1.345-4.293-1.816-8.338-1.748-11.694   c0.069-3.364,0.638-6.03,1.249-7.792c0.654-1.761,1.286-2.639,1.741-2.549c1.004,0.196,0.821,4.117,1.855,9.983   c0.524,2.929,1.406,6.338,2.859,9.906c0.755,1.77,1.597,3.604,2.672,5.385c0.494,0.916,1.115,1.772,1.684,2.678   c0.646,0.851,1.246,1.757,1.967,2.581c2.696,3.388,6.107,6.083,9.286,8.882c3.177,2.753,6.074,5.655,7.94,8.545   c1.913,2.856,2.835,5.61,3.053,7.535C150.206,776.873,149.851,777.948,149.404,778.014z"/>
	<path style="fill:#F04E23;" d="M42.941,773.759c-0.228-0.939,2.378-2.354,6.513-4.091c4.103-1.779,9.719-3.909,14.548-7.707   c2.394-1.89,4.335-4.011,5.652-6.15c1.333-2.146,2.126-4.362,2.56-6.288c0.876-3.867,0.282-6.611,1.197-7.032   c0.409-0.188,1.168,0.261,1.958,1.485c0.787,1.212,1.533,3.234,1.694,5.851c0.147,2.603-0.33,5.772-1.815,8.949   c-1.478,3.192-3.946,6.18-6.995,8.584c-3.056,2.393-6.347,4.008-9.382,5.063c-3.038,1.061-5.819,1.62-8.146,1.935   C46.067,774.945,43.161,774.663,42.941,773.759z"/>
	<path style="fill:#F04E23;" d="M87.243,745.795c0.455-0.05,1.042,0.992,1.531,3.014c0.494,2.018,0.782,5.03,0.492,8.758   c-0.282,3.723-1.258,8.146-3.25,12.737c-1.979,4.585-5.054,9.299-9.232,13.386c-4.22,4.044-9.031,6.965-13.678,8.794   c-4.653,1.842-9.105,2.674-12.835,2.835c-3.735,0.17-6.736-0.216-8.737-0.775c-2.005-0.554-3.028-1.176-2.962-1.628   c0.14-1.032,4.528-0.932,11.056-2.412c3.26-0.726,7.039-1.927,10.938-3.819c3.899-1.883,7.877-4.526,11.438-7.931   c3.519-3.449,6.289-7.34,8.298-11.176c2.017-3.836,3.34-7.574,4.171-10.809C86.165,750.291,86.207,745.902,87.243,745.795z"/>
	<path style="fill:#F04E23;" d="M105.731,749.629c0.436-0.12,1.204,0.885,1.997,2.951c0.803,2.06,1.481,5.226,1.574,9.204   c0.108,3.976-0.533,8.729-2.096,13.74c-1.569,5.006-4.107,10.231-7.545,15.181c-3.45,4.898-7.323,9.053-11.065,12.491   c-3.747,3.443-7.343,6.217-10.444,8.398c-6.216,4.343-10.404,6.471-10.986,5.747c-0.607-0.754,2.556-4.265,7.871-9.476   c5.265-5.24,12.717-12.196,18.992-21.097c3.079-4.438,5.499-9.004,7.203-13.342c1.695-4.341,2.731-8.428,3.219-11.93   C105.485,754.486,104.706,749.899,105.731,749.629z"/>
	<path style="fill:#F04E23;" d="M195.306,775.087c-0.333,0.907-1.605,1.323-3.239,1.645c-1.649,0.313-3.692,0.572-5.924,0.937   c-2.229,0.383-4.245,0.803-5.906,1.046c-1.65,0.229-2.987,0.25-3.598-0.499c-0.588-0.713-0.255-2.166,1.193-3.722   c0.716-0.778,1.715-1.534,2.934-2.185c1.224-0.631,2.671-1.145,4.242-1.415c1.574-0.256,3.109-0.243,4.472-0.045   c1.365,0.219,2.556,0.607,3.487,1.109C194.841,772.956,195.63,774.221,195.306,775.087z"/>
	<path style="fill-rule:evenodd;clip-rule:evenodd;fill:#F04E23;" d="M158.727,822.481c-0.889,1.977-0.62,4.658,1.185,5.859   c1.346,0.896,3.124,0.748,4.693,0.359c3.674-0.911,7.051-2.984,9.525-5.849c1.125-1.302,2.106-2.911,1.955-4.625   c-0.163-1.837-1.677-3.378-3.441-3.918c-1.764-0.54-3.704-0.206-5.385,0.553C164.177,816.251,160.14,819.339,158.727,822.481z"/>
	<path style="fill:#F04E23;" d="M194.084,794.007c-0.786,0.567-2.021,0.273-3.451-0.184c-1.44-0.476-3.129-1.114-5.022-1.717   c-1.901-0.581-3.652-1.017-5.107-1.444c-1.437-0.438-2.62-0.899-2.944-1.812c-0.314-0.863,0.439-2.117,2.315-3.006   c0.928-0.448,2.116-0.745,3.462-0.837c1.341-0.068,2.834,0.086,4.32,0.541c1.481,0.471,2.797,1.194,3.861,2.012   c1.054,0.841,1.863,1.762,2.371,2.658C194.927,792.015,194.834,793.475,194.084,794.007z"/>
	<path style="fill:#F04E23;" d="M119.906,736.067c0.344,0.301,0.191,1.197-0.584,2.489c-0.761,1.303-2.207,2.943-4.34,4.562   c-2.126,1.627-4.979,3.134-8.363,4.22c-3.385,1.059-7.323,1.649-11.469,1.38c-4.148-0.271-7.994-1.38-11.211-2.922   c-3.223-1.544-5.813-3.529-7.675-5.468c-1.862-1.953-2.986-3.861-3.498-5.285c-0.527-1.421-0.493-2.334-0.099-2.56   c0.891-0.503,2.884,1.752,6.705,4.111c1.914,1.172,4.27,2.397,7.022,3.367c2.751,0.968,5.884,1.684,9.205,1.901   c3.322,0.216,6.54-0.082,9.418-0.649c2.873-0.593,5.429-1.407,7.512-2.289C116.716,737.202,119.139,735.403,119.906,736.067z"/>
	<path style="fill:#04294F;" d="M21.494,831.686c0.839-0.021,1.121,4.253,3.606,11.149c1.283,3.426,3.22,7.465,6.148,11.666   c0.674,1.086,1.574,2.074,2.39,3.159c0.831,1.077,1.842,2.064,2.784,3.149c2.051,2.023,4.272,4.105,6.883,5.912   c5.127,3.731,11.464,6.694,18.676,7.958c3.596,0.692,7.42,0.836,11.319,0.609c3.899-0.25,7.905-0.907,11.862-2.123   c7.896-2.417,15.688-6.775,21.977-13.064c6.286-6.267,11.057-14.575,13.614-23.788c2.57-9.216,2.862-18.839,1.133-27.68   c-1.748-8.842-5.544-16.968-10.363-23.851c-4.802-6.932-10.739-12.546-16.84-16.989c-6.164-4.356-12.563-7.591-18.666-9.568   c-6.095-2.016-11.889-2.762-16.937-2.61c-5.056,0.169-9.376,1.237-12.77,2.468c-3.395,1.258-5.889,2.665-7.589,3.654   c-0.852,0.495-1.52,0.873-1.996,1.108c-0.485,0.226-0.801,0.285-0.927,0.16c-0.127-0.125-0.062-0.431,0.196-0.918   c0.248-0.497,0.71-1.151,1.398-1.946c1.37-1.586,3.707-3.697,7.222-5.694c3.512-1.966,8.215-3.792,13.969-4.573   c5.74-0.767,12.441-0.45,19.449,1.347c7.017,1.76,14.305,4.932,21.458,9.506c7.07,4.656,14.007,10.737,19.723,18.484   c5.728,7.698,10.353,16.991,12.566,27.405c2.18,10.384,1.919,21.628-1.1,32.468c-3.007,10.831-8.727,20.714-16.449,28.204   c-7.72,7.498-17.068,12.429-26.464,15.009c-4.708,1.294-9.464,1.923-14.088,2.044c-4.624,0.098-9.146-0.275-13.392-1.288   c-1.073-0.186-2.104-0.528-3.134-0.817c-1.028-0.3-2.052-0.571-3.029-0.979c-0.982-0.379-1.955-0.755-2.918-1.127   c-0.928-0.446-1.846-0.888-2.756-1.326c-3.575-1.853-6.825-3.952-9.606-6.324c-2.851-2.288-5.212-4.847-7.328-7.327   c-0.974-1.314-1.998-2.523-2.826-3.817c-0.813-1.304-1.69-2.499-2.33-3.788c-2.786-5.01-4.342-9.722-5.121-13.631   c-0.724-3.931-0.813-7.021-0.625-9.094C20.842,832.743,21.138,831.687,21.494,831.686z"/>
	<path style="fill:#04294F;" d="M32.876,905.444c-0.278,0.222-0.873-0.018-1.785-0.726c-0.439-0.365-1.026-0.799-1.562-1.439   c-0.532-0.643-1.129-1.412-1.781-2.312c-0.516-0.967-1.183-2.033-1.691-3.305c-0.23-0.651-0.47-1.329-0.72-2.035   c-0.266-0.709-0.349-1.49-0.53-2.288c-0.597-3.197-0.555-7.07,0.602-11.066c1.137-3.995,3.342-8.064,6.521-11.687   c0.402-0.45,0.807-0.905,1.215-1.363c0.444-0.42,0.892-0.843,1.343-1.27c0.885-0.882,1.883-1.65,2.9-2.43   c0.988-0.826,2.124-1.457,3.222-2.188c0.511-0.366,1.245-0.679,1.894-1.009l1.01-0.485c0.334-0.172,0.681-0.315,1.048-0.42   c2.85-1.089,6.012-1.46,9.133-1.329c3.139,0.156,6.16,1.012,9.021,2.181c2.88,1.168,5.479,2.854,7.926,4.755   c2.449,1.906,4.637,4.169,6.568,6.707c1.924,2.556,3.564,5.27,4.717,8.375c1.131,3.05,1.716,6.194,1.836,9.286   c0.235,6.175-1.376,12.216-4.615,17.095c-1.612,2.435-3.636,4.549-5.893,6.208c-2.253,1.618-4.656,2.786-7.032,3.557   c-4.77,1.546-9.357,1.7-13.374,1.165c-4.027-0.546-7.491-1.78-10.275-3.264c-2.792-1.483-4.929-3.172-6.452-4.745   C33.077,908.22,32.354,905.834,32.876,905.444c0.591-0.474,2.371,0.967,5.693,2.792c1.664,0.904,3.753,1.853,6.244,2.613   c2.484,0.764,5.404,1.293,8.58,1.305c3.163,0.014,6.643-0.531,9.861-1.913c1.61-0.685,3.126-1.603,4.473-2.725   c1.305-1.131,2.46-2.502,3.393-4.103c1.874-3.187,2.837-7.307,2.556-11.508c-0.137-2.096-0.581-4.204-1.345-6.177   c-0.734-1.927-1.941-3.924-3.328-5.755c-1.4-1.842-3.011-3.545-4.784-4.951c-1.762-1.401-3.614-2.67-5.543-3.494   c-1.914-0.833-3.849-1.46-5.714-1.62c-1.854-0.132-3.649-0.043-5.308,0.491c-0.217,0.036-0.422,0.108-0.618,0.207l-0.603,0.253   c-0.409,0.186-0.79,0.267-1.245,0.557c-0.863,0.515-1.79,0.923-2.576,1.509c-0.818,0.543-1.637,1.067-2.355,1.689   c-0.374,0.296-0.744,0.59-1.112,0.881c-0.338,0.322-0.672,0.641-1.004,0.958c-2.661,2.538-4.625,5.389-5.852,8.214   c-2.497,5.697-1.867,11.036-0.899,14.622c0.303,0.879,0.56,1.687,0.765,2.413c0.21,0.724,0.492,1.296,0.632,1.819   C33.104,904.55,33.153,905.222,32.876,905.444z"/>
	
		<ellipse transform="matrix(0.3135 -0.9496 0.9496 0.3135 -873.3804 684.9612)" style="fill:#04294F;" cx="37.052" cy="946.54" rx="32.57" ry="5.153"/>
	<path style="fill:#04294F;" d="M31.631,956.209c-0.009,1.413-1.458,2.713-3.923,3.488c-2.451,0.778-5.915,0.979-9.587,0.237   c-3.672-0.746-6.784-2.28-8.739-3.95c-1.968-1.673-2.797-3.435-2.255-4.74c0.548-1.323,2.308-1.97,4.638-2.147   c2.341-0.171,5.266,0.097,8.403,0.737c3.138,0.632,5.937,1.523,8.027,2.592C30.272,953.496,31.641,954.776,31.631,956.209z"/>
	<path style="fill:#04294F;" d="M90.625,870.027c0.739,0.138,0.835,2.702,1.144,7.109c0.313,4.396,0.975,10.706,3.262,18.02   c1.153,3.646,2.694,7.537,4.799,11.456c0.55,0.967,1.067,1.97,1.686,2.936c0.298,0.473,0.601,1.015,0.898,1.444   c0.303,0.408,0.573,0.839,0.894,1.242c1.266,1.624,2.834,3.12,4.569,4.253c1.73,1.136,3.63,1.873,5.361,2.01   c1.741,0.151,3.28-0.24,4.806-1.33l0.567-0.439c0.194-0.136,0.39-0.275,0.564-0.484c0.347-0.385,0.764-0.726,1.084-1.123   c0.651-0.776,1.22-1.656,1.692-2.659c0.947-2.002,1.529-4.449,1.812-7.116c0.295-2.659,0.265-5.5,0.153-8.351   c-0.118-2.831-0.372-5.617-0.745-8.34c-0.745-5.447-1.969-10.636-3.519-15.462c-0.772-2.39-1.666-4.779-2.548-6.905   c-0.904-2.089-1.91-4.031-3.054-5.647c-1.128-1.64-2.383-2.943-3.67-3.83c-1.275-0.902-2.636-1.325-3.98-1.462   c-2.723-0.221-5.596,1.163-7.597,2.883c-2.02,1.728-3.429,3.898-4.466,5.733c-1.038,1.861-1.75,3.446-2.336,4.506   C91.425,869.538,90.978,870.094,90.625,870.027c-0.345-0.065-0.583-0.745-0.649-2.008c-0.053-1.261,0.046-3.113,0.618-5.49   c0.6-2.359,1.634-5.31,4.051-8.282c1.213-1.455,2.742-2.855,4.67-4.006c1.929-1.123,4.288-2.041,7.006-2.178   c2.693-0.128,5.603,0.503,8.112,1.905c2.52,1.378,4.64,3.317,6.393,5.463c1.781,2.147,3.214,4.521,4.485,7.01   c1.224,2.49,2.293,4.945,3.303,7.606c1.987,5.282,3.566,11.032,4.544,17.114c0.49,3.04,0.83,6.163,1,9.343   c0.158,3.157,0.23,6.443-0.146,9.934c-0.375,3.466-1.164,7.063-2.834,10.497c-0.832,1.71-1.908,3.356-3.19,4.824   c-0.632,0.739-1.345,1.36-2.024,2.025c-0.325,0.335-0.719,0.632-1.122,0.921l-1.195,0.862c-0.381,0.298-0.842,0.525-1.288,0.761   l-1.347,0.684c-0.927,0.399-1.923,0.695-2.89,0.979c-1.002,0.159-2.008,0.396-3.004,0.408c-0.995,0.007-2.002,0.056-2.945-0.117   c-3.854-0.49-7.104-2.099-9.747-4.02c-2.652-1.943-4.773-4.247-6.472-6.734c-0.428-0.619-0.799-1.277-1.189-1.908   c-0.368-0.628-0.634-1.192-0.949-1.785c-0.628-1.158-1.142-2.349-1.678-3.501c-2.051-4.656-3.367-9.216-4.179-13.422   c-1.602-8.444-1.125-15.427-0.192-20.037C88.713,872.24,89.969,869.898,90.625,870.027z"/>
	
		<ellipse transform="matrix(0.9771 -0.213 0.213 0.9771 -205.2307 49.5518)" style="fill:#04294F;" cx="127.381" cy="977.363" rx="5.153" ry="58.057"/>
	<path style="fill:#04294F;" d="M166.582,1011.94c0.002,1.438-3.065,2.701-7.925,3.837c-4.867,1.134-11.525,2.198-18.889,3.201   c-7.363,1.011-14.063,1.773-19.055,1.988c-4.986,0.21-8.28-0.183-8.664-1.569c-0.376-1.356,2.27-3.46,7.01-5.529   c4.73-2.069,11.572-4.039,19.312-5.101c7.742-1.055,14.861-0.994,19.973-0.271C163.467,1009.217,166.581,1010.532,166.582,1011.94z   "/>
	
		<ellipse transform="matrix(0.9816 -0.191 0.191 0.9816 -188.6523 43.5842)" style="fill:#04294F;" cx="131.764" cy="1000.414" rx="14.022" ry="5.153"/>
	<path style="fill:#F04E23;" d="M748.931,693.511c-4.445-1.258-9.223-0.398-12.95,2.332l-46.256,33.882   c-3.857,2.825-6.136,7.32-6.136,12.101v117.757c0,6.715,4.463,12.612,10.926,14.436l30.912,8.724   c4.442,1.254,9.214,0.392,12.938-2.335l46.262-33.887c3.857-2.825,6.136-7.32,6.136-12.101V713.637   c0-4.925-3.274-9.25-8.014-10.587L748.931,693.511z"/>
	<path style="fill:#FFB400;" d="M721.441,738.757c-4.971,0-9-4.029-9-9v-50c0-4.971,4.029-9,9-9s9,4.029,9,9v50   C730.441,734.728,726.411,738.757,721.441,738.757z"/>
	
		<ellipse transform="matrix(0.8017 -0.5977 0.5977 0.8017 -289.6136 599.6177)" style="fill:#FFB400;" cx="758.96" cy="736.326" rx="32.351" ry="4.294"/>
	<ellipse style="fill:#FFB400;" cx="732.471" cy="811.346" rx="4.294" ry="54.256"/>
	
		<ellipse transform="matrix(0.4004 -0.9164 0.9164 0.4004 -260.9666 1100.0353)" style="fill:#FFB400;" cx="710.046" cy="749.42" rx="4.294" ry="22.389"/>
	<path style="fill:#00AEE0;" d="M1090.685,297.009c0.208,1.234-4.881,3.029-12.817,6.018c-0.99,0.374-2.028,0.766-3.109,1.175   c-1.08,0.404-2.181,0.891-3.335,1.344c-2.317,0.881-4.728,1.98-7.286,3.061c-5.068,2.284-10.554,4.94-16.157,8.027   c-5.578,3.132-10.727,6.393-15.341,9.494c-2.267,1.603-4.473,3.072-6.443,4.576c-0.994,0.741-1.988,1.42-2.901,2.124   c-0.917,0.703-1.798,1.378-2.638,2.022c-6.724,5.166-10.934,8.542-11.872,7.716c-0.444-0.393,0.043-1.75,1.331-3.894   c0.322-0.536,0.694-1.121,1.114-1.753c0.43-0.622,0.931-1.266,1.468-1.963c1.088-1.38,2.319-2.975,3.846-4.573   c0.759-0.808,1.553-1.655,2.382-2.537c0.839-0.873,1.771-1.716,2.716-2.616c1.871-1.823,4.026-3.591,6.292-5.463   c4.608-3.638,9.949-7.314,15.872-10.637c5.946-3.279,11.887-5.879,17.408-7.876c2.785-0.938,5.424-1.836,7.96-2.464   c1.263-0.327,2.471-0.675,3.655-0.927c1.186-0.238,2.325-0.467,3.411-0.686c2.164-0.455,4.168-0.66,5.915-0.856   c0.875-0.088,1.688-0.174,2.442-0.212c0.758-0.024,1.451-0.031,2.076-0.022C1089.175,296.123,1090.585,296.424,1090.685,297.009z"/>
	<path style="fill:#00AEE0;" d="M163.848,664.802c0.339,1.072-3.948,3.664-11.604,5.984c-0.961,0.271-1.968,0.556-3.017,0.852   c-1.054,0.283-2.165,0.499-3.313,0.753c-2.293,0.533-4.779,0.888-7.399,1.269c-5.25,0.643-11.085,0.961-17.199,0.721   c-6.112-0.284-11.899-1.099-17.075-2.188c-2.578-0.603-5.024-1.169-7.264-1.896c-1.122-0.351-2.211-0.661-3.237-1.033   c-1.02-0.385-1.999-0.754-2.933-1.107c-7.43-2.965-11.48-5.914-11.051-6.953c0.466-1.153,5.242-0.242,12.723,1.115   c0.934,0.169,1.912,0.347,2.932,0.531c1.016,0.189,2.087,0.324,3.181,0.511c2.185,0.397,4.542,0.674,7.002,1.035   c4.94,0.607,10.369,1.137,16.088,1.405c5.721,0.222,11.175,0.158,16.149-0.025c2.481-0.15,4.854-0.224,7.065-0.433   c1.106-0.092,2.185-0.136,3.213-0.237c1.031-0.097,2.021-0.19,2.967-0.279C158.645,664.113,163.482,663.613,163.848,664.802z"/>
	
		<ellipse transform="matrix(0.9963 -0.0862 0.0862 0.9963 -58.5851 16.711)" style="fill:#00AEE0;" cx="164.241" cy="686.842" rx="4.294" ry="9.031"/>
	
		<ellipse transform="matrix(0.9138 -0.4061 0.4061 0.9138 -43.6265 434.6079)" style="fill:#00AEE0;" cx="1002.161" cy="320.092" rx="4.294" ry="7.386"/>
	<path style="fill:#00AEE0;" d="M692.167,411.181c0.245,0.916-3.593,2.801-10.791,5.436c-1.799,0.659-3.808,1.364-6.016,2.113   c-2.215,0.715-4.646,1.395-7.256,2.148c-5.229,1.458-11.179,3.212-17.87,4.627c-3.342,0.74-6.843,1.515-10.49,2.323   c-3.655,0.781-7.493,1.39-11.455,2.112c-1.984,0.346-4.002,0.698-6.052,1.055c-1.026,0.172-2.059,0.366-3.104,0.522   c-1.047,0.143-2.102,0.288-3.164,0.433c-4.255,0.567-8.634,1.15-13.124,1.748c-18.005,2.036-37.928,3.355-58.864,3.334   c-20.935-0.146-40.847-1.624-58.835-3.803c-4.486-0.634-8.86-1.252-13.11-1.853c-1.061-0.154-2.115-0.307-3.16-0.459   c-1.044-0.165-2.074-0.366-3.099-0.547c-2.048-0.374-4.063-0.741-6.044-1.103c-3.956-0.754-7.789-1.393-11.438-2.203   c-3.641-0.837-7.136-1.64-10.471-2.406c-6.679-1.468-12.615-3.27-17.832-4.769c-2.604-0.774-5.029-1.473-7.239-2.206   c-2.201-0.766-4.205-1.488-5.999-2.161c-7.177-2.692-10.999-4.608-10.747-5.522c0.252-0.914,4.549-0.744,12.056,0.336   c1.877,0.27,3.954,0.597,6.22,0.978c2.275,0.332,4.747,0.693,7.403,1.081c5.307,0.77,11.289,1.885,17.971,2.721   c3.326,0.478,6.811,0.978,10.442,1.499c3.628,0.523,7.43,0.889,11.343,1.386c1.958,0.24,3.949,0.484,5.973,0.732   c1.012,0.121,2.029,0.264,3.058,0.371c1.031,0.096,2.07,0.192,3.116,0.289c4.18,0.404,8.483,0.819,12.895,1.245   c17.667,1.446,37.114,2.509,57.552,2.653c20.439,0.019,39.893-0.889,57.571-2.194c4.416-0.391,8.721-0.772,12.905-1.142   c1.047-0.089,2.086-0.177,3.118-0.264c1.03-0.099,2.048-0.234,3.061-0.346c2.025-0.232,4.019-0.46,5.978-0.684   c3.918-0.466,7.722-0.802,11.354-1.296c3.635-0.492,7.124-0.965,10.454-1.416c6.688-0.783,12.679-1.85,17.992-2.578   c2.659-0.367,5.134-0.708,7.411-1.022c2.269-0.363,4.349-0.674,6.228-0.929C687.625,410.401,691.923,410.265,692.167,411.181z"/>
	<path style="fill:#04294F;" d="M429.917,835.716c-1.258,0.664-2.998,0.202-5.115-1.307c-0.529-0.377-1.082-0.819-1.655-1.325   c-0.559-0.512-1.105-1.102-1.684-1.746c-1.137-1.297-2.409-2.817-3.529-4.637c-0.58-0.902-1.169-1.862-1.762-2.875   c-0.588-1.015-1.099-2.111-1.655-3.244c-1.142-2.258-2.071-4.777-3.019-7.454c-1.756-5.383-3.074-11.526-3.578-18.063   c-0.451-6.54-0.04-12.81,0.916-18.391c0.55-2.786,1.103-5.413,1.904-7.813c0.385-1.201,0.731-2.36,1.166-3.45   c0.44-1.089,0.883-2.124,1.326-3.101c0.844-1.963,1.881-3.652,2.818-5.101c0.479-0.722,0.934-1.385,1.413-1.973   c0.494-0.583,0.976-1.101,1.445-1.551c1.875-1.801,3.529-2.511,4.871-2.037c1.341,0.474,2.251,2.073,2.782,4.445   c0.132,0.593,0.241,1.236,0.326,1.922c0.099,0.691,0.211,1.437,0.284,2.218c0.167,1.568,0.178,3.28,0.303,5.174   c0.042,0.942,0.065,1.917,0.067,2.922c0.03,1.005,0.06,2.051,0.092,3.133c-0.012,2.142,0.121,4.426,0.129,6.794   c0.163,4.753,0.35,9.902,0.716,15.305c0.423,5.398,0.986,10.52,1.516,15.247c0.335,2.345,0.536,4.624,0.859,6.741   c0.126,1.076,0.248,2.115,0.365,3.113c0.143,0.995,0.263,1.963,0.358,2.901c0.151,1.892,0.389,3.587,0.452,5.163   c0.042,0.783,0.04,1.538,0.041,2.236c0.016,0.691,0.002,1.343-0.043,1.949C431.844,833.338,431.176,835.052,429.917,835.716z"/>
	<path style="fill:#04294F;" d="M617.188,841.778c-1.233,0.71-3.008,0.269-5.22-1.251c-0.553-0.38-1.132-0.826-1.736-1.338   c-0.588-0.519-1.163-1.122-1.775-1.781c-1.201-1.326-2.558-2.879-3.749-4.755c-0.618-0.929-1.247-1.917-1.883-2.962   c-0.63-1.047-1.173-2.182-1.769-3.353c-1.226-2.334-2.218-4.949-3.238-7.728c-1.881-5.593-3.295-11.992-3.827-18.807   c-0.471-6.819-0.008-13.356,1.035-19.164c0.603-2.898,1.202-5.63,2.073-8.119c0.418-1.246,0.79-2.448,1.26-3.576   c0.476-1.127,0.954-2.197,1.429-3.206c0.904-2.03,2.019-3.764,3.014-5.252c0.51-0.741,0.99-1.421,1.495-2.021   c0.523-0.595,1.031-1.121,1.522-1.578c1.966-1.827,3.657-2.523,4.981-2.001s2.163,2.197,2.59,4.657   c0.106,0.615,0.187,1.28,0.241,1.99c0.071,0.715,0.157,1.489,0.199,2.297c0.11,1.624,0.049,3.388,0.121,5.348   c0.013,0.974,0.005,1.981-0.024,3.019c-0.022,1.039,0.031,2.131,0.012,3.239c-0.071,2.212,0.026,4.576-0.01,7.024   c0.092,4.917,0.238,10.243,0.616,15.831c0.443,5.583,1.078,10.874,1.705,15.751c0.393,2.417,0.643,4.77,1.037,6.947   c0.18,1.093,0.287,2.181,0.461,3.206c0.18,1.023,0.335,2.018,0.465,2.983c0.215,1.95,0.534,3.686,0.663,5.308   c0.076,0.805,0.104,1.583,0.138,2.301c0.05,0.71,0.068,1.379,0.053,2.004C619.007,839.289,618.421,841.068,617.188,841.778z"/>
	<path style="fill:#00AEE0;" d="M738.048,1131.403c0.28,1.106-4.274,3.449-12.16,5.6c-1.97,0.532-4.143,1.069-6.501,1.516   c-2.35,0.504-4.888,0.875-7.563,1.264c-5.357,0.69-11.297,1.13-17.54,1.138c-6.242-0.026-12.181-0.485-17.536-1.191   c-2.674-0.396-5.21-0.776-7.559-1.287c-2.356-0.454-4.527-0.998-6.496-1.535c-7.88-2.175-12.426-4.532-12.143-5.637   c0.64-2.412,19.92,1.126,43.747,1.062C718.125,1132.469,737.416,1128.989,738.048,1131.403z"/>
	<path style="fill:#00AEE0;" d="M362.139,1117.021c-0.686,0.904-5.226-1.079-11.565-5.801c-0.781-0.603-1.6-1.235-2.452-1.894   c-0.845-0.669-1.679-1.415-2.561-2.171c-1.778-1.499-3.55-3.234-5.418-5.063c-3.664-3.724-7.453-8.07-11.038-12.931   c-3.554-4.883-6.555-9.807-9.001-14.423c-1.181-2.333-2.301-4.545-3.194-6.692c-0.456-1.068-0.915-2.088-1.298-3.096   c-0.371-1.012-0.727-1.983-1.066-2.909c-2.591-7.468-3.114-12.395-2.044-12.776c2.364-0.827,9.935,16.453,23.533,34.821   C349.446,1102.588,363.64,1115.016,362.139,1117.021z"/>
	<path style="fill:#00AEE0;" d="M381.437,124.365c-0.165,1.236-3.43,1.675-8.063,3.036c-4.623,1.319-10.722,3.825-15.966,8.4   c-5.235,4.586-8.534,10.295-10.459,14.7c-1.969,4.41-2.841,7.587-4.087,7.585c-0.581-0.003-1.155-0.825-1.559-2.398   c-0.407-1.57-0.569-3.894-0.223-6.748c0.34-2.85,1.266-6.211,2.993-9.661c1.717-3.446,4.289-6.951,7.682-9.944   c3.419-2.962,7.237-5.043,10.882-6.284c3.65-1.25,7.105-1.719,9.975-1.674c2.874,0.039,5.156,0.51,6.657,1.123   C380.774,123.11,381.512,123.789,381.437,124.365z"/>
	<path style="fill:#00AEE0;" d="M446.418,56.336c-0.274,1.223-3.577,1.348-8.25,2.472c-4.65,1.069-10.827,3.432-15.865,8.091   c-5.022,4.677-7.839,10.661-9.252,15.218c-1.469,4.576-1.841,7.861-3.081,8.043c-0.573,0.082-1.265-0.654-1.882-2.179   c-0.62-1.521-1.078-3.845-1.043-6.768c0.028-2.918,0.642-6.422,2.132-10.062c1.478-3.634,3.902-7.376,7.283-10.546   c3.413-3.135,7.326-5.273,11.06-6.477c3.741-1.215,7.281-1.565,10.193-1.375c2.917,0.183,5.201,0.813,6.672,1.545   C445.861,55.026,446.543,55.771,446.418,56.336z"/>
	<path style="fill:#00AEE0;" d="M575.014,31.504c-0.858,0.919-4.327-1.198-9.985-3.561c-5.619-2.388-13.699-4.818-22.71-4.686   c-9.011,0.143-17.014,2.819-22.557,5.377c-5.583,2.534-8.986,4.757-9.872,3.864c-0.408-0.412-0.094-1.537,0.984-3.17   c1.073-1.633,2.972-3.717,5.71-5.869c2.731-2.154,6.352-4.301,10.711-5.947c4.35-1.651,9.457-2.737,14.893-2.843   c5.436-0.061,10.574,0.869,14.973,2.386c4.408,1.513,8.092,3.548,10.888,5.617c2.802,2.067,4.763,4.092,5.886,5.692   C575.061,29.965,575.409,31.08,575.014,31.504z"/>
	<path style="fill:#00AEE0;" d="M332.752,243.759c-0.381,0.453-1.355,0.319-2.853-0.377c-0.374-0.174-0.781-0.383-1.217-0.626   c-0.424-0.256-0.842-0.579-1.304-0.922c-0.902-0.703-1.981-1.494-2.941-2.573c-0.501-0.523-1.02-1.082-1.555-1.674   c-0.528-0.597-0.984-1.28-1.498-1.967c-1.062-1.36-1.931-2.969-2.869-4.664c-1.718-3.454-3.136-7.511-3.869-11.922   c-0.672-4.421-0.584-8.718-0.023-12.534c0.366-1.903,0.693-3.701,1.28-5.324c0.275-0.813,0.497-1.604,0.813-2.335   c0.325-0.729,0.645-1.421,0.958-2.074c0.578-1.323,1.357-2.41,1.997-3.358c0.333-0.469,0.63-0.906,0.953-1.281   c0.34-0.367,0.661-0.692,0.963-0.973c1.208-1.127,2.091-1.557,2.594-1.244c0.503,0.313,0.589,1.33,0.353,2.822   c-0.059,0.373-0.139,0.776-0.239,1.206c-0.073,0.438-0.154,0.915-0.24,1.426c-0.168,1.014-0.486,2.095-0.631,3.353   c-0.097,0.619-0.207,1.259-0.33,1.919c-0.115,0.662-0.146,1.374-0.241,2.087c-0.226,1.422-0.241,2.971-0.358,4.569   c-0.062,3.22,0.082,6.736,0.631,10.392c0.613,3.646,1.567,7.033,2.626,10.075c0.607,1.483,1.102,2.951,1.758,4.232   c0.312,0.649,0.563,1.315,0.877,1.909c0.322,0.589,0.625,1.163,0.909,1.722c0.529,1.15,1.166,2.079,1.641,2.991   c0.24,0.46,0.464,0.887,0.671,1.281c0.228,0.378,0.429,0.736,0.601,1.072C332.898,242.312,333.133,243.306,332.752,243.759z"/>
	<path style="fill:#00AEE0;" d="M393.621,323.685c-0.372,1.063-4.154,0.985-9.766-1.063c-0.693-0.273-1.42-0.559-2.177-0.857   c-0.752-0.312-1.5-0.702-2.289-1.085c-1.593-0.745-3.191-1.721-4.881-2.75c-3.313-2.147-6.76-4.84-9.998-8.067   c-3.209-3.256-5.882-6.718-8.011-10.043c-1.02-1.695-1.986-3.299-2.722-4.896c-0.378-0.792-0.764-1.541-1.072-2.295   c-0.294-0.758-0.576-1.486-0.845-2.181c-2.017-5.624-2.073-9.406-1.008-9.772c1.168-0.415,3.229,2.523,6.396,6.972   c0.395,0.555,0.808,1.137,1.238,1.743c0.425,0.606,0.916,1.206,1.383,1.847c0.915,1.296,2.003,2.598,3.082,4.001   c2.249,2.743,4.793,5.668,7.648,8.569c2.885,2.871,5.796,5.432,8.526,7.697c1.397,1.087,2.693,2.182,3.984,3.104   c0.639,0.471,1.236,0.965,1.839,1.393c0.604,0.434,1.183,0.85,1.736,1.248C391.115,320.442,394.042,322.519,393.621,323.685z"/>
	<path style="fill:#00AEE0;" d="M697.891,163.854c-0.63-1.137,3.429-4.102,8.122-10.057c1.182-1.477,2.351-3.178,3.531-5.026   c1.118-1.892,2.279-3.918,3.243-6.166c1.988-4.458,3.423-9.65,3.83-15.162c0.329-5.517-0.403-10.853-1.78-15.536   c-0.657-2.356-1.537-4.519-2.395-6.543c-0.924-1.989-1.857-3.831-2.832-5.451c-3.859-6.526-7.488-10.005-6.712-11.048   c0.337-0.461,1.703-0.19,3.819,0.955c2.117,1.137,4.903,3.264,7.785,6.494c1.448,1.608,2.853,3.529,4.221,5.695   c1.301,2.199,2.596,4.634,3.606,7.354c2.083,5.402,3.271,11.858,2.856,18.652c-0.491,6.79-2.528,13.03-5.311,18.107   c-1.362,2.561-2.97,4.802-4.552,6.809c-1.644,1.964-3.292,3.681-4.941,5.083c-3.286,2.818-6.33,4.555-8.579,5.401   C699.554,164.269,698.164,164.356,697.891,163.854z"/>
	<path style="fill:#00AEE0;" d="M639.945,47.214c-1.197,0.262-2.559-1.474-4.652-3.546c-2.06-2.092-5.027-4.565-8.697-5.979   c-3.675-1.402-7.534-1.547-10.465-1.369c-2.941,0.141-5.115,0.521-5.83-0.474c-0.335-0.478-0.23-1.256,0.399-2.227   c0.625-0.97,1.807-2.086,3.541-3.071c1.728-0.987,4.027-1.784,6.706-2.05c2.67-0.271,5.728,0.039,8.723,1.171   c2.984,1.16,5.465,2.974,7.269,4.961c1.814,1.989,2.991,4.119,3.616,6.008c0.631,1.892,0.764,3.513,0.58,4.651   C640.956,46.434,640.514,47.083,639.945,47.214z"/>
	<path style="fill:#00AEE0;" d="M419.829,368.289c0.09,1.175-1.288,2.397-3.788,3.329c-2.48,0.889-6.285,1.584-10.744,0.494   c-2.188-0.547-4.232-1.517-5.874-2.773c-1.646-1.249-2.859-2.784-3.535-4.199c-0.683-1.417-0.872-2.692-0.767-3.613   c0.106-0.927,0.501-1.507,1.046-1.726c1.117-0.435,2.578,0.515,4.367,1.429c1.781,0.919,3.953,1.83,6.86,2.555   c2.838,0.722,5.913,1.123,8.305,1.771C418.097,366.187,419.738,367.1,419.829,368.289z"/>
	<path style="fill-rule:evenodd;clip-rule:evenodd;fill:#00AEE0;" d="M334.281,519.231c0,0,0,0-0.01,0.01   c-8.85,0.87-17.32,2.02-25.4,3.47c1.69-43.38,12.49-6.63,22.46-58.37C338.731,426.001,335.721,500.841,334.281,519.231z"/>
	<path style="fill:#00AEE0;" d="M260.409,703.211c-0.917,1.691-2.78,2.616-4.54,3.479c-0.45,0.212-0.896,0.395-1.36,0.608   c-0.451,0.164-0.922,0.395-1.386,0.541c-0.94,0.371-1.899,0.675-2.93,0.949c-1.023,0.303-2,0.544-2.995,0.716   c-0.473,0.117-0.994,0.164-1.465,0.259c-0.507,0.06-0.983,0.136-1.477,0.189c-1.952,0.18-4.024,0.361-5.687-0.605   c-0.812-0.49-1.387-1.254-1.641-2.34c-0.133-0.547-0.176-1.164-0.087-1.814c0.082-0.654,0.232-1.405,0.553-2.12   c0.302-0.739,0.71-1.516,1.266-2.243c0.529-0.771,1.216-1.457,1.981-2.157c1.56-1.331,3.564-2.463,5.835-3.114   c2.278-0.627,4.578-0.705,6.604-0.381c1.018,0.199,1.961,0.427,2.814,0.81c0.853,0.332,1.606,0.782,2.249,1.256   c0.647,0.442,1.166,1.006,1.576,1.521c0.414,0.508,0.699,1.058,0.871,1.594C260.941,701.418,260.847,702.37,260.409,703.211z"/>
	<path style="fill:#00AEE0;" d="M236.943,971.82c0.101,0.937-0.13,1.881-0.81,2.728c-0.675,0.846-1.804,1.562-3.316,1.936   c-1.506,0.376-3.384,0.369-5.363-0.217c-1.973-0.579-4.04-1.772-5.746-3.598c-1.695-1.836-2.733-3.985-3.165-5.995   c-0.439-2.017-0.307-3.89,0.178-5.364c0.483-1.48,1.281-2.554,2.174-3.164c0.895-0.616,1.853-0.777,2.78-0.607   c1.871,0.378,3.339,1.739,4.715,2.812c1.351,1.131,2.557,2.074,3.386,2.967c0.83,0.892,1.682,2.164,2.71,3.595   C235.455,968.362,236.704,969.927,236.943,971.82z"/>
	<path style="fill:#00AEE0;" d="M435.107,307.38c0.34,0.485,0.107,1.301-0.681,2.404c-0.197,0.276-0.428,0.569-0.693,0.878   c-0.272,0.297-0.595,0.578-0.943,0.887c-0.705,0.599-1.521,1.313-2.536,1.884c-0.5,0.304-1.032,0.614-1.594,0.929   c-0.564,0.309-1.181,0.548-1.815,0.828c-1.263,0.588-2.683,0.983-4.189,1.407c-3.028,0.719-6.481,1.078-10.081,0.824   c-3.596-0.301-6.953-1.185-9.835-2.36c-1.423-0.65-2.765-1.258-3.924-2.033c-0.583-0.374-1.156-0.705-1.667-1.096   c-0.507-0.397-0.985-0.786-1.433-1.162c-0.915-0.719-1.612-1.55-2.217-2.25c-0.297-0.359-0.573-0.686-0.796-1.022   c-0.215-0.346-0.398-0.672-0.551-0.974c-0.61-1.211-0.715-2.053-0.305-2.48c0.873-0.892,3.359,0.203,7.021,1.536   c0.464,0.16,0.942,0.334,1.43,0.522c0.491,0.182,1.032,0.312,1.563,0.49c1.051,0.382,2.229,0.634,3.421,0.977   c2.433,0.561,5.106,1.046,7.952,1.291c2.85,0.195,5.565,0.126,8.056-0.056c1.231-0.155,2.433-0.224,3.53-0.441   c0.552-0.095,1.106-0.14,1.62-0.245c0.511-0.111,1.009-0.21,1.493-0.296C431.757,307.066,434.382,306.365,435.107,307.38z"/>
	<path style="fill:#00AEE0;" d="M683.05,163.934c0.263,0.511-0.114,1.381-1.204,2.379c-1.082,0.997-2.887,2.123-5.325,2.992   c-2.432,0.861-5.482,1.468-8.858,1.538c-3.381,0.089-7.067-0.357-10.718-1.242c-3.661-0.884-6.957-2.085-9.839-3.292   c-2.882-1.216-5.364-2.428-7.436-3.559c-4.13-2.265-6.49-4.226-6.099-5.346s3.458-1.186,8.101-0.388   c2.317,0.394,5.051,1.028,7.982,1.8c2.933,0.767,6.07,1.656,9.304,2.435c3.239,0.782,6.261,1.361,9.021,1.684   c2.766,0.339,5.26,0.416,7.389,0.407C679.604,163.311,682.473,162.847,683.05,163.934z"/>
	<path style="fill:#00AEE0;" d="M698.333,122.774c0.578-0.07,1.229,0.508,1.797,1.731c0.57,1.219,0.988,3.095,0.978,5.46   c-0.005,2.361-0.51,5.198-1.756,8.134c-1.235,2.93-3.266,5.935-6.091,8.439c-2.849,2.476-6.093,4.099-9.158,4.944   c-3.073,0.854-5.952,0.987-8.293,0.685c-2.347-0.297-4.152-0.954-5.287-1.678c-1.14-0.722-1.627-1.443-1.484-2.007   c0.315-1.195,2.94-1.45,6.507-2.382c3.559-0.888,8.201-2.651,12.049-6.016c3.837-3.379,6.188-7.752,7.53-11.166   C696.514,125.5,697.107,122.931,698.333,122.774z"/>
	<path style="fill:#FFFFFF;" d="M583.189,296.865c0.51,1.045-0.239,2.659-2.24,4.14c-1.975,1.477-5.236,2.698-8.96,2.78   c-3.724,0.076-7.034-1.005-9.07-2.397c-2.063-1.395-2.879-2.975-2.414-4.041c0.478-1.105,2.04-1.566,4.046-1.808   c2.022-0.233,4.519-0.29,7.255-0.34c2.736-0.066,5.233-0.115,7.264,0.032C581.084,295.387,582.665,295.781,583.189,296.865z"/>
	<g>
		<g>
			<path style="fill:#00AEE0;" d="M405.241,1078.459c1.348,1.932-2.505,6.948-9.011,10.536c-6.5,3.602-12.805,4.19-13.719,2.017     c-0.93-2.197,3.5-6.168,9.565-9.534C398.152,1078.132,403.881,1076.499,405.241,1078.459z"/>
		</g>
		<g>
			<path style="fill:#00AEE0;" d="M436.432,1050.518c1.824,1.492-0.517,7.367-5.784,12.598c-5.256,5.242-11.141,7.557-12.625,5.726     c-1.507-1.85,1.65-6.905,6.566-11.813C429.52,1052.137,434.588,1049.003,436.432,1050.518z"/>
		</g>
		<g>
			<path style="fill:#00AEE0;" d="M458.723,1015.08c1.084,0.479,1.439,2.24,1.112,4.747c-0.302,2.513-1.352,5.746-3.164,8.971     c-3.61,6.499-8.637,10.337-10.568,8.98c-1.952-1.366-0.301-7.09,3.063-13.155c1.707-3.036,3.52-5.645,5.186-7.406     C456.038,1015.471,457.639,1014.601,458.723,1015.08z"/>
		</g>
		<g>
			<path style="fill:#00AEE0;" d="M470.184,974.812c2.339,0.286,3.501,6.502,1.845,13.739c-1.641,7.242-5.383,12.342-7.615,11.585     c-2.261-0.761-2.29-6.718-0.759-13.492C465.207,979.875,467.816,974.516,470.184,974.812z"/>
		</g>
		<g>
			<path style="fill:#00AEE0;" d="M470.188,932.94c2.328-0.369,5.153,5.294,5.535,12.712c0.397,7.416-1.812,13.341-4.165,13.223     c-2.383-0.114-4.036-5.84-4.411-12.772C466.794,939.17,467.83,933.307,470.188,932.94z"/>
		</g>
	</g>
	<g>
		<g>
			<path style="fill:#00AEE0;" d="M641.25,963.185c-2.371-0.072-4.048-5.968-3.747-13.169c0.301-7.2,2.466-12.935,4.834-12.81     c2.368,0.126,4.046,6.022,3.747,13.169C645.785,957.522,643.621,963.257,641.25,963.185z"/>
		</g>
		<g>
			<path style="fill:#00AEE0;" d="M640.552,1002.178c-2.372-0.004-4.218-5.85-4.123-13.055c0.094-7.206,2.094-13.001,4.464-12.943     c2.371,0.058,4.217,5.903,4.123,13.055S642.923,1002.183,640.552,1002.178z"/>
		</g>
		<g>
			<path style="fill:#00AEE0;" d="M640.971,1041.175c-2.371,0.064-4.384-5.726-4.495-12.932s1.72-13.055,4.092-13.065     s4.384,5.78,4.495,12.932C645.174,1035.262,643.341,1041.112,640.971,1041.175z"/>
		</g>
		<g>
			<path style="fill:#00AEE0;" d="M642.507,1080.145c-2.368,0.131-4.546-5.598-4.864-12.798c-0.318-7.199,1.346-13.099,3.716-13.177     c2.37-0.078,4.548,5.652,4.864,12.798C646.538,1074.114,644.875,1080.013,642.507,1080.145z"/>
		</g>
		<g>
			<path style="fill:#00AEE0;" d="M645.159,1119.054c-2.363,0.199-4.704-5.466-5.229-12.653c-0.524-7.187,0.969-13.132,3.337-13.278     c2.367-0.146,4.708,5.519,5.229,12.653C649.016,1112.91,647.523,1118.855,645.159,1119.054z"/>
		</g>
	</g>
</g>

        </g>
    </g>
</g>

              </svg>